<svg width="178" height="110" viewBox="0 0 178 110" fill="none" xmlns="http://www.w3.org/2000/svg">
<path opacity="0.8" d="M11.9 94.85L11.1019 95.4526L11.1049 95.4565L11.9 94.85ZM11.9 16.4L12.6951 17.0065L11.9 16.4ZM79.7 16.55L78.902 17.1526L78.9049 17.1565L79.7 16.55ZM79.7 94.85L80.4951 95.4565L80.498 95.4526L79.7 94.85ZM55.55 39.2L54.6248 39.5796L54.6284 39.5881L55.55 39.2ZM35.9 39.2L36.8217 39.5881L36.8252 39.5796L35.9 39.2ZM12.698 94.2474C5.46692 84.6711 1.8 71.805 1.8 55.55H-0.2C-0.2 72.095 3.53308 85.4289 11.102 95.4526L12.698 94.2474ZM1.8 55.55C1.8 39.2943 5.46719 26.4809 12.6951 17.0065L11.1049 15.7935C3.53281 25.7191 -0.2 39.0057 -0.2 55.55H1.8ZM12.6951 17.0065C19.8597 7.61498 30.827 2.85 45.8 2.85V0.849998C30.373 0.849998 18.7403 5.78502 11.1049 15.7935L12.6951 17.0065ZM45.8 2.85C60.7693 2.85 71.7359 7.66235 78.902 17.1526L80.498 15.9474C72.8642 5.83765 61.2307 0.849998 45.8 0.849998V2.85ZM78.9049 17.1565C86.1336 26.6319 89.8 39.3959 89.8 55.55H91.8C91.8 39.1041 88.0665 25.8681 80.4951 15.9435L78.9049 17.1565ZM89.8 55.55C89.8 71.805 86.1331 84.6711 78.902 94.2474L80.498 95.4526C88.0669 85.4289 91.8 72.095 91.8 55.55H89.8ZM78.9049 94.2435C71.7403 103.635 60.773 108.4 45.8 108.4V110.4C61.227 110.4 72.8597 105.465 80.4951 95.4565L78.9049 94.2435ZM45.8 108.4C30.827 108.4 19.8597 103.635 12.6951 94.2435L11.1049 95.4565C18.7403 105.465 30.373 110.4 45.8 110.4V108.4ZM56.4752 72.4296C58.1472 68.354 58.95 62.7033 58.95 55.55H56.95C56.95 62.5967 56.1528 67.946 54.6248 71.6704L56.4752 72.4296ZM58.95 55.55C58.95 48.3991 58.1479 42.7929 56.4716 38.8119L54.6284 39.5881C56.1522 43.207 56.95 48.5009 56.95 55.55H58.95ZM56.4752 38.8204C55.603 36.6946 54.2575 35.0533 52.427 33.955C50.6073 32.8632 48.3792 32.35 45.8 32.35V34.35C48.1208 34.35 49.9677 34.8118 51.398 35.67C52.8175 36.5217 53.897 37.8054 54.6248 39.5796L56.4752 38.8204ZM45.8 32.35C43.1742 32.35 40.9105 32.8618 39.0663 33.9516C37.2099 35.0485 35.8488 36.6901 34.9748 38.8204L36.8252 39.5796C37.5512 37.8098 38.6401 36.5265 40.0837 35.6734C41.5395 34.8132 43.4258 34.35 45.8 34.35V32.35ZM34.9784 38.8119C33.3022 42.7929 32.5 48.3991 32.5 55.55H34.5C34.5 48.5009 35.2978 43.207 36.8216 39.5881L34.9784 38.8119ZM32.5 55.55C32.5 62.7033 33.3028 68.354 34.9748 72.4296L36.8252 71.6704C35.2972 67.946 34.5 62.5967 34.5 55.55H32.5ZM34.9748 72.4296C35.8488 74.5598 37.2099 76.2015 39.0663 77.2984C40.9105 78.3882 43.1742 78.9 45.8 78.9V76.9C43.4258 76.9 41.5395 76.4368 40.0837 75.5766C38.6401 74.7235 37.5512 73.4402 36.8252 71.6704L34.9748 72.4296ZM45.8 78.9C48.3792 78.9 50.6073 78.3868 52.427 77.295C54.2575 76.1967 55.603 74.5554 56.4752 72.4296L54.6248 71.6704C53.897 73.4446 52.8175 74.7283 51.398 75.58C49.9677 76.4382 48.1208 76.9 45.8 76.9V78.9ZM99.5164 83.45L98.9135 82.6522L98.5164 82.9523V83.45H99.5164ZM130.566 57.05L129.859 56.3429L129.855 56.3475L130.566 57.05ZM132.516 31.55L131.622 31.1028L131.617 31.1134L131.612 31.1242L132.516 31.55ZM131.316 41.3V42.3H132.316V41.3H131.316ZM99.0664 41.3L98.0669 41.2678L98.0336 42.3H99.0664V41.3ZM105.066 18.35L104.222 17.8149L104.215 17.8251L105.066 18.35ZM119.766 5.14999L119.344 4.24381L119.766 5.14999ZM167.166 10.25L166.436 10.9332L166.442 10.9394L167.166 10.25ZM166.566 59.9L165.766 59.3L166.566 59.9ZM142.716 81.65L142.18 80.806L139.278 82.65H142.716V81.65ZM177.066 81.65H178.066V80.65H177.066V81.65ZM177.066 108.5V109.5H178.066V108.5H177.066ZM99.5164 108.5H98.5164V109.5H99.5164V108.5ZM100.119 84.2478C113.24 74.3319 123.632 65.4996 131.278 57.7525L129.855 56.3475C122.301 64.0004 111.993 72.7681 98.9135 82.6522L100.119 84.2478ZM131.274 57.7571C139.026 50.0046 143.116 42.8591 143.116 36.35H141.116C141.116 42.0409 137.507 48.6954 129.859 56.3429L131.274 57.7571ZM143.116 36.35C143.116 33.764 142.669 31.6462 141.623 30.1515C140.531 28.5919 138.887 27.85 136.866 27.85V29.85C138.345 29.85 139.326 30.3581 139.985 31.2985C140.688 32.3038 141.116 33.936 141.116 36.35H143.116ZM136.866 27.85C135.713 27.85 134.66 28.1112 133.752 28.6754C132.843 29.2393 132.14 30.0673 131.622 31.1028L133.411 31.9972C133.793 31.2327 134.265 30.7107 134.806 30.3746C135.347 30.0388 136.02 29.85 136.866 29.85V27.85ZM131.612 31.1242C131.145 32.1159 130.829 33.476 130.624 35.1403C130.417 36.8198 130.316 38.8761 130.316 41.3H132.316C132.316 38.9239 132.416 36.9552 132.609 35.3847C132.804 33.799 133.088 32.6841 133.421 31.9758L131.612 31.1242ZM131.316 40.3H99.0664V42.3H131.316V40.3ZM100.066 41.3322C100.362 32.1525 102.334 24.6863 105.918 18.8749L104.215 17.8251C100.399 24.0137 98.3708 31.8475 98.0669 41.2678L100.066 41.3322ZM105.911 18.8851C109.617 13.0343 114.375 8.76942 120.189 6.05618L119.344 4.24381C113.158 7.13057 108.116 11.6657 104.222 17.8149L105.911 18.8851ZM120.189 6.05618C126.046 3.32322 132.5 1.94999 139.566 1.94999V-0.0500069C132.233 -0.0500069 125.487 1.37676 119.344 4.24381L120.189 6.05618ZM139.566 1.94999C152.024 1.94999 160.901 5.016 166.436 10.9332L167.897 9.56684C161.832 3.08398 152.309 -0.0500069 139.566 -0.0500069V1.94999ZM166.442 10.9394C172.155 16.9431 175.016 24.292 175.016 33.05H177.016C177.016 23.808 173.978 15.9569 167.891 9.56063L166.442 10.9394ZM175.016 33.05C175.016 42.3108 171.951 51.0539 165.766 59.3L167.366 60.5C173.782 51.9461 177.016 42.7892 177.016 33.05H175.016ZM165.766 59.3C159.545 67.5956 151.687 74.7653 142.18 80.806L143.253 82.494C152.946 76.3347 160.988 69.0043 167.366 60.5L165.766 59.3ZM142.716 82.65H177.066V80.65H142.716V82.65ZM176.066 81.65V108.5H178.066V81.65H176.066ZM177.066 107.5H99.5164V109.5H177.066V107.5ZM100.516 108.5V83.45H98.5164V108.5H100.516Z" fill="#44A1E7"/>
</svg>
