<svg width="180" height="115" viewBox="0 0 180 115" fill="none" xmlns="http://www.w3.org/2000/svg">
<path opacity="0.8" d="M11.9 97.85L11.1019 98.4526L11.1049 98.4565L11.9 97.85ZM11.9 19.4L12.6951 20.0065L11.9 19.4ZM79.7 19.55L78.902 20.1526L78.9049 20.1565L79.7 19.55ZM79.7 97.85L80.4951 98.4565L80.498 98.4526L79.7 97.85ZM55.55 42.2L54.6248 42.5796L54.6284 42.5881L55.55 42.2ZM35.9 42.2L36.8217 42.5881L36.8252 42.5796L35.9 42.2ZM12.698 97.2474C5.46692 87.6711 1.8 74.805 1.8 58.55H-0.2C-0.2 75.095 3.53308 88.4289 11.102 98.4526L12.698 97.2474ZM1.8 58.55C1.8 42.2943 5.46719 29.4809 12.6951 20.0065L11.1049 18.7935C3.53281 28.7191 -0.2 42.0057 -0.2 58.55H1.8ZM12.6951 20.0065C19.8597 10.615 30.827 5.85 45.8 5.85V3.85C30.373 3.85 18.7403 8.78502 11.1049 18.7935L12.6951 20.0065ZM45.8 5.85C60.7693 5.85 71.7359 10.6623 78.902 20.1526L80.498 18.9474C72.8642 8.83765 61.2307 3.85 45.8 3.85V5.85ZM78.9049 20.1565C86.1336 29.6319 89.8 42.3959 89.8 58.55H91.8C91.8 42.1041 88.0665 28.8681 80.4951 18.9435L78.9049 20.1565ZM89.8 58.55C89.8 74.805 86.1331 87.6711 78.902 97.2474L80.498 98.4526C88.0669 88.4289 91.8 75.095 91.8 58.55H89.8ZM78.9049 97.2435C71.7403 106.635 60.773 111.4 45.8 111.4V113.4C61.227 113.4 72.8597 108.465 80.4951 98.4565L78.9049 97.2435ZM45.8 111.4C30.827 111.4 19.8597 106.635 12.6951 97.2435L11.1049 98.4565C18.7403 108.465 30.373 113.4 45.8 113.4V111.4ZM56.4752 75.4296C58.1472 71.354 58.95 65.7033 58.95 58.55H56.95C56.95 65.5967 56.1528 70.946 54.6248 74.6704L56.4752 75.4296ZM58.95 58.55C58.95 51.3991 58.1479 45.7929 56.4716 41.8119L54.6284 42.5881C56.1522 46.207 56.95 51.5009 56.95 58.55H58.95ZM56.4752 41.8204C55.603 39.6946 54.2575 38.0533 52.427 36.955C50.6073 35.8632 48.3792 35.35 45.8 35.35V37.35C48.1208 37.35 49.9677 37.8118 51.398 38.67C52.8175 39.5217 53.897 40.8054 54.6248 42.5796L56.4752 41.8204ZM45.8 35.35C43.1742 35.35 40.9105 35.8618 39.0663 36.9516C37.2099 38.0485 35.8488 39.6901 34.9748 41.8204L36.8252 42.5796C37.5512 40.8098 38.6401 39.5265 40.0837 38.6734C41.5395 37.8132 43.4258 37.35 45.8 37.35V35.35ZM34.9784 41.8119C33.3022 45.7929 32.5 51.3991 32.5 58.55H34.5C34.5 51.5009 35.2978 46.207 36.8216 42.5881L34.9784 41.8119ZM32.5 58.55C32.5 65.7033 33.3028 71.354 34.9748 75.4296L36.8252 74.6704C35.2972 70.946 34.5 65.5967 34.5 58.55H32.5ZM34.9748 75.4296C35.8488 77.5598 37.2099 79.2015 39.0663 80.2984C40.9105 81.3882 43.1742 81.9 45.8 81.9V79.9C43.4258 79.9 41.5395 79.4368 40.0837 78.5766C38.6401 77.7235 37.5512 76.4402 36.8252 74.6704L34.9748 75.4296ZM45.8 81.9C48.3792 81.9 50.6073 81.3868 52.427 80.295C54.2575 79.1967 55.603 77.5554 56.4752 75.4296L54.6248 74.6704C53.897 76.4446 52.8175 77.7283 51.398 78.58C49.9677 79.4382 48.1208 79.9 45.8 79.9V81.9ZM173.616 15.95L172.762 16.4699L172.766 16.4767L172.77 16.4833L173.616 15.95ZM173.016 48.05L173.78 48.696L173.788 48.6864L173.016 48.05ZM161.916 56L161.593 55.0536L160.916 55.2848V56H161.916ZM161.916 56.6H160.916V57.293L161.565 57.5363L161.916 56.6ZM175.416 98.6L176.269 99.1221L175.416 98.6ZM162.516 110L162.082 109.099L162.076 109.102L162.516 110ZM112.266 104.75L112.909 103.983L112.266 104.75ZM100.866 75.65V74.65H99.8511L99.8665 75.6651L100.866 75.65ZM133.266 75.65L134.265 75.7055L134.324 74.65H133.266V75.65ZM134.766 83.9L133.921 84.434L133.938 84.4603L133.956 84.4855L134.766 83.9ZM145.866 84.65L146.601 85.3283L146.614 85.3148L146.626 85.3008L145.866 84.65ZM144.816 72.95L144.176 73.7182L144.199 73.7373L144.223 73.7551L144.816 72.95ZM129.966 70.7H128.966V71.7H129.966V70.7ZM129.966 43.85V42.85H128.966V43.85H129.966ZM135.366 43.85L135.425 42.8517L135.396 42.85H135.366V43.85ZM143.916 30.2L143.148 30.8402L143.163 30.8583L143.179 30.8757L143.916 30.2ZM134.466 37.7V38.7H135.466V37.7H134.466ZM102.066 37.7L101.067 37.6748L101.041 38.7H102.066V37.7ZM112.416 10.4L111.731 9.67146L111.726 9.67664L112.416 10.4ZM140.766 1.94999C148.555 1.94999 155.149 3.28129 160.582 5.90076L161.451 4.09923C155.684 1.3187 148.777 -0.0500069 140.766 -0.0500069V1.94999ZM160.582 5.90076C166.036 8.53024 170.077 12.059 172.762 16.4699L174.471 15.43C171.556 10.641 167.197 6.86976 161.451 4.09923L160.582 5.90076ZM172.77 16.4833C175.563 20.9129 176.966 25.9256 176.966 31.55H178.966C178.966 25.5744 177.47 20.1871 174.462 15.4167L172.77 16.4833ZM176.966 31.55C176.966 38.3991 175.353 43.6468 172.245 47.4136L173.788 48.6864C177.28 44.4532 178.966 38.7009 178.966 31.55H176.966ZM172.253 47.4041C169.049 51.1909 165.494 53.7219 161.593 55.0536L162.24 56.9463C166.539 55.4781 170.384 52.7091 173.78 48.6959L172.253 47.4041ZM160.916 56V56.6H162.916V56H160.916ZM161.565 57.5363C167.426 59.7341 171.745 62.8422 174.604 66.821C177.461 70.7961 178.916 75.7193 178.916 81.65H180.916C180.916 75.3807 179.372 70.0289 176.229 65.654C173.088 61.2828 168.407 57.9659 162.268 55.6637L161.565 57.5363ZM178.916 81.65C178.916 87.8873 177.457 93.3525 174.564 98.0779L176.269 99.1221C179.376 94.0475 180.916 88.2127 180.916 81.65H178.916ZM174.564 98.0779C171.672 102.801 167.524 106.475 162.082 109.099L162.951 110.901C168.709 108.125 173.161 104.199 176.269 99.1221L174.564 98.0779ZM162.076 109.102C156.742 111.721 150.35 113.05 142.866 113.05V115.05C150.583 115.05 157.291 113.679 162.957 110.898L162.076 109.102ZM142.866 113.05C130.02 113.05 120.075 109.987 112.909 103.983L111.624 105.517C119.258 111.913 129.713 115.05 142.866 115.05V113.05ZM112.909 103.983C105.805 98.0316 102.064 88.6562 101.866 75.6348L99.8665 75.6651C100.069 89.0438 103.928 99.0684 111.624 105.517L112.909 103.983ZM100.866 76.65H133.266V74.65H100.866V76.65ZM132.268 75.5945C132.063 79.2868 132.561 82.2808 133.921 84.434L135.612 83.366C134.572 81.7192 134.07 79.2132 134.265 75.7055L132.268 75.5945ZM133.956 84.4855C135.511 86.6396 138.082 87.6 141.366 87.6V85.6C138.451 85.6 136.621 84.7604 135.577 83.3145L133.956 84.4855ZM141.366 87.6C143.44 87.6 145.208 86.8374 146.601 85.3283L145.132 83.9717C144.125 85.0626 142.893 85.6 141.366 85.6V87.6ZM146.626 85.3008C148.01 83.686 148.666 81.6404 148.666 79.25H146.666C146.666 81.2596 146.123 82.814 145.107 83.9992L146.626 85.3008ZM148.666 79.25C148.666 76.1993 147.615 73.7699 145.41 72.1449L144.223 73.7551C145.818 74.9301 146.666 76.7007 146.666 79.25H148.666ZM145.457 72.1818C143.375 70.4475 139.971 69.7 135.516 69.7V71.7C139.862 71.7 142.657 72.4525 144.176 73.7182L145.457 72.1818ZM135.516 69.7H129.966V71.7H135.516V69.7ZM130.966 70.7V43.85H128.966V70.7H130.966ZM129.966 44.85H135.366V42.85H129.966V44.85ZM135.308 44.8483C138.82 45.0549 141.662 44.4777 143.638 42.9081C145.652 41.3092 146.566 38.8451 146.566 35.75H144.566C144.566 38.4549 143.781 40.2408 142.395 41.3419C140.971 42.4723 138.713 43.0451 135.425 42.8517L135.308 44.8483ZM146.566 35.75C146.566 33.1293 145.993 30.986 144.654 29.5243L143.179 30.8757C144.039 31.814 144.566 33.3707 144.566 35.75H146.566ZM144.685 29.5598C143.489 28.1255 141.905 27.4 140.016 27.4V29.4C141.328 29.4 142.343 29.8745 143.148 30.8402L144.685 29.5598ZM140.016 27.4C137.825 27.4 136.106 28.351 134.995 30.2125C133.933 31.9923 133.466 34.5332 133.466 37.7H135.466C135.466 34.6668 135.925 32.5577 136.713 31.2375C137.452 29.999 138.508 29.4 140.016 29.4V27.4ZM134.466 36.7H102.066V38.7H134.466V36.7ZM103.066 37.7252C103.362 26.0058 106.751 17.19 113.107 11.1234L111.726 9.67664C104.881 16.21 101.371 25.5942 101.067 37.6748L103.066 37.7252ZM113.101 11.1285C119.562 5.05365 128.736 1.94999 140.766 1.94999V-0.0500069C128.397 -0.0500069 118.671 3.14635 111.731 9.67148L113.101 11.1285Z" fill="#44A1E7"/>
</svg>
