<svg width="189" height="110" viewBox="0 0 189 110" fill="none" xmlns="http://www.w3.org/2000/svg">
<path opacity="0.8" d="M11.9 94.85L11.1019 95.4526L11.1049 95.4565L11.9 94.85ZM11.9 16.4L12.6951 17.0065L11.9 16.4ZM79.7 16.55L78.902 17.1526L78.9049 17.1565L79.7 16.55ZM79.7 94.85L80.4951 95.4565L80.498 95.4526L79.7 94.85ZM55.55 39.2L54.6248 39.5796L54.6284 39.5881L55.55 39.2ZM35.9 39.2L36.8217 39.5881L36.8252 39.5796L35.9 39.2ZM12.698 94.2474C5.46692 84.6711 1.8 71.805 1.8 55.55H-0.2C-0.2 72.095 3.53308 85.4289 11.102 95.4526L12.698 94.2474ZM1.8 55.55C1.8 39.2943 5.46719 26.4809 12.6951 17.0065L11.1049 15.7935C3.53281 25.7191 -0.2 39.0057 -0.2 55.55H1.8ZM12.6951 17.0065C19.8597 7.61498 30.827 2.85 45.8 2.85V0.849998C30.373 0.849998 18.7403 5.78502 11.1049 15.7935L12.6951 17.0065ZM45.8 2.85C60.7693 2.85 71.7359 7.66235 78.902 17.1526L80.498 15.9474C72.8642 5.83765 61.2307 0.849998 45.8 0.849998V2.85ZM78.9049 17.1565C86.1336 26.6319 89.8 39.3959 89.8 55.55H91.8C91.8 39.1041 88.0665 25.8681 80.4951 15.9435L78.9049 17.1565ZM89.8 55.55C89.8 71.805 86.1331 84.6711 78.902 94.2474L80.498 95.4526C88.0669 85.4289 91.8 72.095 91.8 55.55H89.8ZM78.9049 94.2435C71.7403 103.635 60.773 108.4 45.8 108.4V110.4C61.227 110.4 72.8597 105.465 80.4951 95.4565L78.9049 94.2435ZM45.8 108.4C30.827 108.4 19.8597 103.635 12.6951 94.2435L11.1049 95.4565C18.7403 105.465 30.373 110.4 45.8 110.4V108.4ZM56.4752 72.4296C58.1472 68.354 58.95 62.7033 58.95 55.55H56.95C56.95 62.5967 56.1528 67.946 54.6248 71.6704L56.4752 72.4296ZM58.95 55.55C58.95 48.3991 58.1479 42.7929 56.4716 38.8119L54.6284 39.5881C56.1522 43.207 56.95 48.5009 56.95 55.55H58.95ZM56.4752 38.8204C55.603 36.6946 54.2575 35.0533 52.427 33.955C50.6073 32.8632 48.3792 32.35 45.8 32.35V34.35C48.1208 34.35 49.9677 34.8118 51.398 35.67C52.8175 36.5217 53.897 37.8054 54.6248 39.5796L56.4752 38.8204ZM45.8 32.35C43.1742 32.35 40.9105 32.8618 39.0663 33.9516C37.2099 35.0485 35.8488 36.6901 34.9748 38.8204L36.8252 39.5796C37.5512 37.8098 38.6401 36.5265 40.0837 35.6734C41.5395 34.8132 43.4258 34.35 45.8 34.35V32.35ZM34.9784 38.8119C33.3022 42.7929 32.5 48.3991 32.5 55.55H34.5C34.5 48.5009 35.2978 43.207 36.8216 39.5881L34.9784 38.8119ZM32.5 55.55C32.5 62.7033 33.3028 68.354 34.9748 72.4296L36.8252 71.6704C35.2972 67.946 34.5 62.5967 34.5 55.55H32.5ZM34.9748 72.4296C35.8488 74.5598 37.2099 76.2015 39.0663 77.2984C40.9105 78.3882 43.1742 78.9 45.8 78.9V76.9C43.4258 76.9 41.5395 76.4368 40.0837 75.5766C38.6401 74.7235 37.5512 73.4402 36.8252 71.6704L34.9748 72.4296ZM45.8 78.9C48.3792 78.9 50.6073 78.3868 52.427 77.295C54.2575 76.1967 55.603 74.5554 56.4752 72.4296L54.6248 71.6704C53.897 73.4446 52.8175 74.7283 51.398 75.58C49.9677 76.4382 48.1208 76.9 45.8 76.9V78.9ZM182.916 29.6V30.6H183.916V29.6H182.916ZM139.416 29.6V28.6H138.416V29.6H139.416ZM139.416 42.2H138.416V44.4366L140.083 42.9452L139.416 42.2ZM146.766 38.15L146.459 37.1982L146.45 37.2013L146.766 38.15ZM184.866 54.35L183.946 54.7419L183.949 54.7481L184.866 54.35ZM178.116 100.1L178.818 100.812L178.818 100.812L178.116 100.1ZM128.016 105.5L127.581 106.4L127.586 106.403L128.016 105.5ZM113.766 93.05L112.91 93.5669L112.918 93.5786L113.766 93.05ZM109.266 74.9V73.9H108.295L108.267 74.8706L109.266 74.9ZM141.666 74.9H142.666V73.9H141.666V74.9ZM154.266 78.8L153.434 78.2453L154.266 78.8ZM153.966 64.85L153.211 65.5049L153.223 65.5188L153.235 65.5323L153.966 64.85ZM143.466 64.1L142.794 63.3601L143.466 64.1ZM141.816 67.55V68.55H142.816V67.55H141.816ZM109.416 67.55H108.416V68.55H109.416V67.55ZM109.416 0.349998V-0.650002H108.416V0.349998H109.416ZM182.916 0.349998H183.916V-0.650002H182.916V0.349998ZM182.916 28.6H139.416V30.6H182.916V28.6ZM138.416 29.6V42.2H140.416V29.6H138.416ZM140.083 42.9452C141.86 41.3553 144.182 40.0656 147.083 39.0987L146.45 37.2013C143.351 38.2344 140.773 39.6447 138.75 41.4548L140.083 42.9452ZM147.073 39.1017C150.059 38.1385 153.404 37.65 157.116 37.65V35.65C153.229 35.65 149.674 36.1615 146.459 37.1983L147.073 39.1017ZM157.116 37.65C163.756 37.65 169.3 39.2102 173.804 42.2766L174.929 40.6234C170.033 37.2898 164.077 35.65 157.116 35.65V37.65ZM173.804 42.2766C178.34 45.3652 181.719 49.512 183.946 54.7419L185.786 53.9581C183.414 48.388 179.793 43.9347 174.929 40.6234L173.804 42.2766ZM183.949 54.7481C186.188 59.9076 187.316 65.6698 187.316 72.05H189.316C189.316 65.4302 188.145 59.3924 185.784 53.9519L183.949 54.7481ZM187.316 72.05C187.316 83.8549 183.978 92.9212 177.415 99.3877L178.818 100.812C185.855 93.8788 189.316 84.245 189.316 72.05H187.316ZM177.415 99.3876C170.947 105.759 161.974 109 150.366 109V111C162.359 111 171.886 107.641 178.818 100.812L177.415 99.3876ZM150.366 109C141.881 109 134.585 107.52 128.446 104.597L127.586 106.403C134.048 109.48 141.651 111 150.366 111V109ZM128.452 104.6C122.404 101.673 117.805 97.6447 114.615 92.5214L112.918 93.5786C116.328 99.0553 121.229 103.327 127.581 106.4L128.452 104.6ZM114.622 92.5331C111.532 87.4137 110.071 81.557 110.266 74.9294L108.267 74.8706C108.062 81.843 109.601 88.0862 112.91 93.5669L114.622 92.5331ZM109.266 75.9H141.666V73.9H109.266V75.9ZM140.666 74.9C140.666 76.7494 141.308 78.4627 142.53 80.0178L144.103 78.7822C143.125 77.5373 142.666 76.2506 142.666 74.9H140.666ZM142.53 80.0178C143.888 81.7461 146.04 82.5 148.716 82.5V80.5C146.392 80.5 144.945 79.8539 144.103 78.7822L142.53 80.0178ZM148.716 82.5C151.49 82.5 153.682 81.4797 155.098 79.3547L153.434 78.2453C152.451 79.7203 150.943 80.5 148.716 80.5V82.5ZM155.098 79.3547C156.446 77.3336 157.066 74.6658 157.066 71.45H155.066C155.066 74.4342 154.487 76.6664 153.434 78.2453L155.098 79.3547ZM157.066 71.45C157.066 68.4015 156.331 65.9174 154.697 64.1677L153.235 65.5323C154.402 66.7826 155.066 68.6985 155.066 71.45H157.066ZM154.722 64.1951C153.185 62.4212 150.975 61.6 148.266 61.6V63.6C150.558 63.6 152.148 64.2788 153.211 65.5049L154.722 64.1951ZM148.266 61.6C146.02 61.6 144.142 62.1347 142.794 63.3601L144.139 64.8399C144.991 64.0653 146.313 63.6 148.266 63.6V61.6ZM142.794 63.3601C141.518 64.5196 140.816 65.9265 140.816 67.55H142.816C142.816 66.5735 143.215 65.6804 144.139 64.8399L142.794 63.3601ZM141.816 66.55H109.416V68.55H141.816V66.55ZM110.416 67.55V0.349998H108.416V67.55H110.416ZM109.416 1.35H182.916V-0.650002H109.416V1.35ZM181.916 0.349998V29.6H183.916V0.349998H181.916Z" fill="#44A1E7"/>
</svg>
