<svg width="184" height="114" viewBox="0 0 184 114" fill="none" xmlns="http://www.w3.org/2000/svg">
<path opacity="0.8" d="M11.9 96.85L11.1019 97.4526L11.1049 97.4565L11.9 96.85ZM11.9 18.4L12.6951 19.0065L11.9 18.4ZM79.7 18.55L78.902 19.1526L78.9049 19.1565L79.7 18.55ZM79.7 96.85L80.4951 97.4565L80.498 97.4526L79.7 96.85ZM55.55 41.2L54.6248 41.5796L54.6284 41.5881L55.55 41.2ZM35.9 41.2L36.8217 41.5881L36.8252 41.5796L35.9 41.2ZM12.698 96.2474C5.46692 86.6711 1.8 73.805 1.8 57.55H-0.2C-0.2 74.095 3.53308 87.4289 11.102 97.4526L12.698 96.2474ZM1.8 57.55C1.8 41.2943 5.46719 28.4809 12.6951 19.0065L11.1049 17.7935C3.53281 27.7191 -0.2 41.0057 -0.2 57.55H1.8ZM12.6951 19.0065C19.8597 9.61498 30.827 4.85 45.8 4.85V2.85C30.373 2.85 18.7403 7.78502 11.1049 17.7935L12.6951 19.0065ZM45.8 4.85C60.7693 4.85 71.7359 9.66235 78.902 19.1526L80.498 17.9474C72.8642 7.83765 61.2307 2.85 45.8 2.85V4.85ZM78.9049 19.1565C86.1336 28.6319 89.8 41.3959 89.8 57.55H91.8C91.8 41.1041 88.0665 27.8681 80.4951 17.9435L78.9049 19.1565ZM89.8 57.55C89.8 73.805 86.1331 86.6711 78.902 96.2474L80.498 97.4526C88.0669 87.4289 91.8 74.095 91.8 57.55H89.8ZM78.9049 96.2435C71.7403 105.635 60.773 110.4 45.8 110.4V112.4C61.227 112.4 72.8597 107.465 80.4951 97.4565L78.9049 96.2435ZM45.8 110.4C30.827 110.4 19.8597 105.635 12.6951 96.2435L11.1049 97.4565C18.7403 107.465 30.373 112.4 45.8 112.4V110.4ZM56.4752 74.4296C58.1472 70.354 58.95 64.7033 58.95 57.55H56.95C56.95 64.5967 56.1528 69.946 54.6248 73.6704L56.4752 74.4296ZM58.95 57.55C58.95 50.3991 58.1479 44.7929 56.4716 40.8119L54.6284 41.5881C56.1522 45.207 56.95 50.5009 56.95 57.55H58.95ZM56.4752 40.8204C55.603 38.6946 54.2575 37.0533 52.427 35.955C50.6073 34.8632 48.3792 34.35 45.8 34.35V36.35C48.1208 36.35 49.9677 36.8118 51.398 37.67C52.8175 38.5217 53.897 39.8054 54.6248 41.5796L56.4752 40.8204ZM45.8 34.35C43.1742 34.35 40.9105 34.8618 39.0663 35.9516C37.2099 37.0485 35.8488 38.6901 34.9748 40.8204L36.8252 41.5796C37.5512 39.8098 38.6401 38.5265 40.0837 37.6734C41.5395 36.8132 43.4258 36.35 45.8 36.35V34.35ZM34.9784 40.8119C33.3022 44.7929 32.5 50.3991 32.5 57.55H34.5C34.5 50.5009 35.2978 45.207 36.8216 41.5881L34.9784 40.8119ZM32.5 57.55C32.5 64.7033 33.3028 70.354 34.9748 74.4296L36.8252 73.6704C35.2972 69.946 34.5 64.5967 34.5 57.55H32.5ZM34.9748 74.4296C35.8488 76.5598 37.2099 78.2015 39.0663 79.2984C40.9105 80.3882 43.1742 80.9 45.8 80.9V78.9C43.4258 78.9 41.5395 78.4368 40.0837 77.5766C38.6401 76.7235 37.5512 75.4402 36.8252 73.6704L34.9748 74.4296ZM45.8 80.9C48.3792 80.9 50.6073 80.3868 52.427 79.295C54.2575 78.1967 55.603 76.5554 56.4752 74.4296L54.6248 73.6704C53.897 75.4446 52.8175 76.7283 51.398 77.58C49.9677 78.4382 48.1208 78.9 45.8 78.9V80.9ZM150.066 35.65L149.086 35.8461L149.247 36.65H150.066V35.65ZM147.366 29.05L146.58 29.6678L146.593 29.6846L146.607 29.7008L147.366 29.05ZM134.466 32.8L133.518 32.4838L133.515 32.4913L133.513 32.4989L134.466 32.8ZM132.666 50.65H131.666V54.0548L133.508 51.1908L132.666 50.65ZM140.466 44.05L140.892 44.9548L140.466 44.05ZM174.966 50.5L174.247 51.1948L174.253 51.201L174.966 50.5ZM178.866 95.8L177.998 95.3038L177.995 95.309L178.866 95.8ZM165.516 108.55L165.057 107.662L165.516 108.55ZM112.266 98.65L111.42 99.1824L111.422 99.1863L112.266 98.65ZM107.316 25L106.368 24.6838L107.316 25ZM120.516 6.39999L119.968 5.56372L119.962 5.56794L120.516 6.39999ZM171.066 10.6L170.317 11.2616L170.322 11.2677L171.066 10.6ZM181.116 35.65V36.65H182.179L182.115 35.5895L181.116 35.65ZM137.166 82.45L136.459 83.1571L136.483 83.1806L136.508 83.2026L137.166 82.45ZM150.216 82.45L150.899 83.1811L150.9 83.1795L150.216 82.45ZM150.216 69.4L149.532 70.1295V70.1295L150.216 69.4ZM137.316 69.4L138 70.1295V70.1295L137.316 69.4ZM151.047 35.4539C150.433 32.384 149.488 29.9886 148.126 28.3992L146.607 29.7008C147.645 30.9114 148.5 32.916 149.086 35.8461L151.047 35.4539ZM148.153 28.4322C146.802 26.7133 144.709 25.95 142.116 25.95V27.95C144.324 27.95 145.731 28.5867 146.58 29.6678L148.153 28.4322ZM142.116 25.95C140.039 25.95 138.226 26.4864 136.746 27.6181C135.273 28.7448 134.213 30.3969 133.518 32.4838L135.415 33.1162C136.019 31.3031 136.885 30.0302 137.961 29.2069C139.031 28.3886 140.394 27.95 142.116 27.95V25.95ZM133.513 32.4989C132.264 36.4522 131.666 42.5306 131.666 50.65H133.666C133.666 42.5694 134.268 36.7478 135.42 33.1011L133.513 32.4989ZM133.508 51.1908C135.193 48.5684 137.64 46.4855 140.892 44.9548L140.041 43.1452C136.493 44.8145 133.739 47.1316 131.825 50.1092L133.508 51.1908ZM140.892 44.9548C144.141 43.426 147.842 42.65 152.016 42.65V40.65C147.59 40.65 143.592 41.474 140.041 43.1452L140.892 44.9548ZM152.016 42.65C161.395 42.65 168.768 45.5231 174.247 51.1948L175.686 49.8052C169.765 43.6768 161.838 40.65 152.016 40.65V42.65ZM174.253 51.201C179.812 56.8557 182.666 65.1172 182.666 76.15H184.666C184.666 64.7828 181.721 55.9443 175.68 49.799L174.253 51.201ZM182.666 76.15C182.666 83.5046 181.099 89.878 177.998 95.3039L179.735 96.2961C183.034 90.522 184.666 83.7954 184.666 76.15H182.666ZM177.995 95.309C174.994 100.633 170.69 104.748 165.057 107.662L165.976 109.438C171.943 106.352 176.539 101.967 179.738 96.291L177.995 95.309ZM165.057 107.662C159.426 110.574 152.74 112.05 144.966 112.05V114.05C152.993 114.05 160.007 112.526 165.976 109.438L165.057 107.662ZM144.966 112.05C129.465 112.05 118.961 107.322 113.11 98.1137L111.422 99.1863C117.772 109.178 129.068 114.05 144.966 114.05V112.05ZM113.113 98.1176C107.152 88.6395 104.116 75.3023 104.116 58H102.116C102.116 75.4977 105.18 89.2605 111.42 99.1823L113.113 98.1176ZM104.116 58C104.116 44.4563 105.512 33.575 108.265 25.3162L106.368 24.6838C103.521 33.225 102.116 44.3437 102.116 58H104.116ZM108.265 25.3162C111.011 17.0779 115.295 11.0827 121.071 7.23204L119.962 5.56794C113.738 9.71732 109.222 16.1221 106.368 24.6838L108.265 25.3162ZM121.065 7.23624C126.956 3.37302 134.648 1.4 144.216 1.4V-0.600002C134.384 -0.600002 126.277 1.42697 119.968 5.56375L121.065 7.23624ZM144.216 1.4C155.924 1.4 164.561 4.73897 170.317 11.2616L171.816 9.93837C165.572 2.86102 156.308 -0.600002 144.216 -0.600002V1.4ZM170.322 11.2677C176.258 17.885 179.531 26.0152 180.118 35.7105L182.115 35.5895C181.502 25.4848 178.075 16.915 171.811 9.93224L170.322 11.2677ZM181.116 34.65H150.066V36.65H181.116V34.65ZM133.916 75.7C133.916 78.8541 134.706 81.4034 136.459 83.1571L137.874 81.7429C136.627 80.4966 135.916 78.5459 135.916 75.7H133.916ZM136.508 83.2026C138.341 84.8069 140.802 85.55 143.766 85.55V83.55C141.131 83.55 139.191 82.8931 137.825 81.6974L136.508 83.2026ZM143.766 85.55C146.726 85.55 149.155 84.8086 150.899 83.1811L149.534 81.7189C148.278 82.8914 146.407 83.55 143.766 83.55V85.55ZM150.9 83.1795C152.768 81.4289 153.616 78.8713 153.616 75.7H151.616C151.616 78.5287 150.865 80.4711 149.532 81.7205L150.9 83.1795ZM153.616 75.7C153.616 72.7921 152.747 70.4018 150.9 68.6705L149.532 70.1295C150.886 71.3982 151.616 73.2079 151.616 75.7H153.616ZM150.9 68.6705C149.074 66.9586 146.659 66.15 143.766 66.15V68.15C146.274 68.15 148.158 68.8414 149.532 70.1295L150.9 68.6705ZM143.766 66.15C140.874 66.15 138.458 66.9586 136.632 68.6705L138 70.1295C139.374 68.8414 141.259 68.15 143.766 68.15V66.15ZM136.632 68.6705C134.786 70.4018 133.916 72.7921 133.916 75.7H135.916C135.916 73.2079 136.647 71.3982 138 70.1295L136.632 68.6705Z" fill="#44A1E7"/>
</svg>
