<svg width="120" height="44" viewBox="0 0 120 44" fill="none" xmlns="http://www.w3.org/2000/svg">
<path d="M55.1006 38.2553H58.2649V27.2523H55.1006V38.2553ZM55.1006 25.5364H58.2649V22.9197H55.1006V25.5364Z" fill="black"/>
<path d="M60.3037 41.8589H63.468V37.0115H63.5147C64.1893 37.9552 65.2829 38.5772 66.9581 38.5772C70.0294 38.5772 72.1234 36.3252 72.1234 32.7647C72.1234 29.3329 70.0992 26.9521 66.9348 26.9521C65.3062 26.9521 64.1893 27.66 63.4215 28.6251H63.3517V27.2524H60.3037V41.8589ZM66.2834 36.1535C64.3988 36.1535 63.3982 34.8452 63.3982 32.8505C63.3982 30.8772 64.1893 29.3114 66.167 29.3114C68.1215 29.3114 68.9125 30.7699 68.9125 32.8505C68.9125 34.931 67.8889 36.1535 66.2834 36.1535Z" fill="black"/>
<path d="M78.4357 38.5772C81.4139 38.5772 83.4613 37.2474 83.4613 35.0382C83.4613 32.4644 81.251 31.9497 79.2501 31.5636C77.5515 31.2419 75.9694 31.156 75.9694 30.2123C75.9694 29.4188 76.7837 28.9897 78.0169 28.9897C79.3664 28.9897 80.1807 29.4188 80.3203 30.5984H83.1822C82.9495 28.3892 81.2045 26.9521 78.0635 26.9521C75.3412 26.9521 73.2006 28.0889 73.2006 30.4696C73.2006 32.8719 75.2947 33.4082 77.4352 33.7942C79.0639 34.0944 80.5763 34.2018 80.5763 35.2527C80.5763 36.0249 79.7852 36.5182 78.3891 36.5182C76.9699 36.5182 75.9926 35.9605 75.7833 34.695H72.8516C73.0378 37.033 74.9689 38.5772 78.4357 38.5772Z" fill="black"/>
<path d="M95.475 38.2557V27.2527H92.3107V33.6014C92.3107 35.0599 91.4033 36.0894 89.9142 36.0894C88.5647 36.0894 87.9365 35.3816 87.9365 34.0947V27.2527H84.7954V34.5881C84.7954 36.9902 86.2845 38.556 88.937 38.556C90.6122 38.556 91.5428 37.9769 92.3573 36.9688H92.4271V38.2557H95.475Z" fill="black"/>
<path d="M97.522 38.2555H100.686V31.8638C100.686 30.4053 101.547 29.4616 102.827 29.4616C103.99 29.4616 104.665 30.105 104.665 31.3491V38.2555H107.829V31.8638C107.829 30.4053 108.644 29.4616 109.97 29.4616C111.133 29.4616 111.808 30.105 111.808 31.3491V38.2555H114.972V30.8558C114.972 28.4535 113.553 26.9521 111.04 26.9521C109.528 26.9521 108.271 27.6814 107.457 28.8825H107.411C106.829 27.7243 105.619 26.9521 104.107 26.9521C102.455 26.9521 101.291 27.7243 100.64 28.7324H100.57V27.2524H97.522V38.2555Z" fill="black"/>
<path d="M55.147 19.4099H58.3113V4.07422H55.147V19.4099Z" fill="black"/>
<path d="M66.0486 19.7315C69.7481 19.7315 72.2842 17.2006 72.2842 13.919C72.2842 10.6374 69.7481 8.10645 66.0486 8.10645C62.3492 8.10645 59.813 10.6374 59.813 13.919C59.813 17.2006 62.3492 19.7315 66.0486 19.7315ZM66.0486 17.5009C64.0941 17.5009 63.0239 16.0638 63.0239 13.919C63.0239 11.7741 64.0941 10.3156 66.0486 10.3156C67.9798 10.3156 69.0733 11.7741 69.0733 13.919C69.0733 16.0638 67.9798 17.5009 66.0486 17.5009Z" fill="black"/>
<path d="M79.0134 23.1634C80.7817 23.1634 82.3174 22.7773 83.3178 21.9193C84.2019 21.1686 84.7371 20.1176 84.7371 18.5733V8.40672H81.6891V9.56494H81.6426C80.9213 8.64265 79.8277 8.10645 78.3386 8.10645C75.314 8.10645 73.1733 10.2084 73.1733 13.49C73.1733 16.8145 75.7793 18.7449 78.4318 18.7449C79.9441 18.7449 80.8515 18.1873 81.5496 17.458H81.6193V18.6591C81.6193 20.1605 80.7585 20.9541 78.9669 20.9541C77.501 20.9541 76.8264 20.4179 76.5704 19.7315H73.4293C73.7551 21.8764 75.756 23.1634 79.0134 23.1634ZM78.9669 16.407C77.3382 16.407 76.2679 15.3132 76.2679 13.4471C76.2679 11.6026 77.3382 10.4443 78.9436 10.4443C80.8515 10.4443 81.7822 11.817 81.7822 13.4257C81.7822 15.0557 80.9678 16.407 78.9669 16.407Z" fill="black"/>
<path d="M92.4285 19.7315C96.1279 19.7315 98.664 17.2006 98.664 13.919C98.664 10.6374 96.1279 8.10645 92.4285 8.10645C88.729 8.10645 86.1929 10.6374 86.1929 13.919C86.1929 17.2006 88.729 19.7315 92.4285 19.7315ZM92.4285 17.5009C90.474 17.5009 89.4037 16.0638 89.4037 13.919C89.4037 11.7741 90.474 10.3156 92.4285 10.3156C94.3596 10.3156 95.4532 11.7741 95.4532 13.919C95.4532 16.0638 94.3596 17.5009 92.4285 17.5009Z" fill="black"/>
<path d="M101.438 15.2063H115.119V12.6968H101.438V15.2063Z" fill="black"/>
<path d="M116.122 25.3837C116.122 24.8901 116.556 24.49 117.092 24.49H119.03C119.566 24.49 120 24.8901 120 25.3837C120 25.8772 119.566 26.2774 119.03 26.2774H117.092C116.556 26.2774 116.122 25.8772 116.122 25.3837Z" fill="black"/>
<path fill-rule="evenodd" clip-rule="evenodd" d="M23.1445 0.664551C35.9268 0.664551 46.289 10.2168 46.289 22.0001C46.289 33.7834 35.9268 43.3356 23.1445 43.3356C10.3621 43.3356 0 33.7834 0 22.0001C0 10.2168 10.3621 0.664551 23.1445 0.664551ZM22.3079 2.26108C19.6676 2.60362 17.1534 4.55944 15.2018 7.83052C14.6356 8.77934 14.1248 9.82759 13.6797 10.9594C16.3334 10.3447 19.2486 9.98223 22.3079 9.92617V2.26108ZM11.7236 11.4719C12.2771 9.87039 12.9543 8.39698 13.7358 7.08724C14.7032 5.46568 15.8514 4.06538 17.1451 2.98988C10.1104 4.87323 4.56551 9.98476 2.52249 16.4696C3.68917 15.2771 5.2082 14.2186 6.96725 13.3268C8.38803 12.6064 9.98635 11.9821 11.7236 11.4719ZM11.1677 13.275C10.5008 15.7214 10.1077 18.4087 10.0469 21.2289H1.73188C2.10348 18.7949 4.22512 16.4772 7.77354 14.6782C8.80281 14.1563 9.93994 13.6854 11.1677 13.275ZM11.7204 21.2289C11.7894 18.1512 12.27 15.2617 13.0653 12.7087C15.8348 11.9756 18.9693 11.5325 22.3079 11.4688V14.8002C21.0624 17.7396 18.5221 20.0812 15.3333 21.2289H11.7204ZM10.0469 22.7713H1.73188C2.10348 25.2053 4.22512 27.5229 7.77354 29.322C8.80281 29.8439 9.93994 30.3148 11.1677 30.7252C10.5008 28.2788 10.1077 25.5915 10.0469 22.7713ZM13.0653 31.2915C12.27 28.7385 11.7894 25.849 11.7204 22.7713H15.3333C18.5221 23.919 21.0625 26.2606 22.3079 29.2V32.5314C18.9693 32.4677 15.8348 32.0246 13.0653 31.2915ZM11.7236 32.5283C9.98635 32.0181 8.38803 31.3938 6.96725 30.6734C5.2082 29.7816 3.68917 28.7231 2.52249 27.5306C4.56551 34.0154 10.1104 39.127 17.1451 41.0103C15.8514 39.9348 14.7032 38.5345 13.7358 36.9129C12.9543 35.6032 12.2771 34.1298 11.7236 32.5283ZM22.3079 41.7391C19.6676 41.3966 17.1534 39.4407 15.2018 36.1697C14.6356 35.2209 14.1248 34.1726 13.6797 33.0408C16.3334 33.6555 19.2486 34.018 22.3079 34.074V41.7391ZM29.1439 41.0103C30.4375 39.9348 31.5857 38.5345 32.5533 36.9129C33.3347 35.6032 34.0119 34.1298 34.5654 32.5283C36.3026 32.0181 37.9009 31.3938 39.3218 30.6734C41.0808 29.7816 42.5999 28.7231 43.7665 27.5306C41.7235 34.0154 36.1785 39.127 29.1439 41.0103ZM32.6093 33.0408C32.1641 34.1726 31.6533 35.2209 31.0872 36.1697C29.1357 39.4407 26.6215 41.3966 23.981 41.7391V34.074C27.0404 34.018 29.9556 33.6555 32.6093 33.0408ZM35.1213 30.7252C36.349 30.3148 37.4862 29.8439 38.5154 29.322C42.0638 27.5229 44.1855 25.2053 44.5571 22.7713H36.2421C36.1813 25.5915 35.7881 28.2788 35.1213 30.7252ZM34.5687 22.7713C34.4996 25.849 34.0189 28.7385 33.2237 31.2915C30.4542 32.0246 27.3197 32.4677 23.981 32.5314V29.2024C25.2261 26.262 27.767 23.9193 30.9567 22.7713H34.5687ZM36.2421 21.2289H44.5571C44.1855 18.7949 42.0638 16.4772 38.5154 14.6782C37.4862 14.1563 36.349 13.6854 35.1213 13.275C35.7881 15.7214 36.1813 18.4087 36.2421 21.2289ZM33.2237 12.7087C34.0189 15.2617 34.4996 18.1512 34.5687 21.2289H30.9567C27.767 20.0809 25.2261 17.7382 23.981 14.7977V11.4688C27.3197 11.5325 30.4542 11.9756 33.2237 12.7087ZM34.5654 11.4719C36.3026 11.9821 37.9009 12.6064 39.3218 13.3268C41.0808 14.2186 42.5999 15.2771 43.7665 16.4696C41.7235 9.98476 36.1785 4.87323 29.1439 2.98988C30.4375 4.06538 31.5857 5.46568 32.5533 7.08724C33.3347 8.39698 34.0119 9.87039 34.5654 11.4719ZM23.981 2.26108C26.6215 2.60362 29.1357 4.55944 31.0872 7.83052C31.6533 8.77935 32.1641 9.82759 32.6093 10.9594C29.9556 10.3447 27.0404 9.98223 23.981 9.92617V2.26108Z" fill="black"/>
</svg>
