<svg width="120" height="32" viewBox="0 0 120 32" fill="none" xmlns="http://www.w3.org/2000/svg">
<path d="M41.8901 20.1658H48.9054V18.2555H44.2072V9.20679H41.8901V20.1658Z" fill="#3C2979"/>
<path d="M53.6586 20.3264C56.1523 20.3264 57.704 18.6194 57.704 16.0884C57.704 13.5412 56.1523 11.8396 53.6586 11.8396C51.1651 11.8396 49.6133 13.5412 49.6133 16.0884C49.6133 18.6194 51.1651 20.3264 53.6586 20.3264ZM53.6694 18.5605C52.5189 18.5605 51.9302 17.5064 51.9302 16.0723C51.9302 14.6382 52.5189 13.5787 53.6694 13.5787C54.7985 13.5787 55.387 14.6382 55.387 16.0723C55.387 17.5064 54.7985 18.5605 53.6694 18.5605Z" fill="#3C2979"/>
<path d="M62.4371 23.4194C64.7863 23.4194 66.4558 22.3491 66.4558 20.2462V11.9467H64.1923V13.3272H64.1067C63.8017 12.6583 63.1328 11.8396 61.7575 11.8396C59.9542 11.8396 58.4292 13.2416 58.4292 16.0402C58.4292 18.7746 59.9114 20.0482 61.7629 20.0482C63.0739 20.0482 63.807 19.39 64.1067 18.7104H64.203V20.214C64.203 21.3431 63.4806 21.7819 62.4906 21.7819C61.4846 21.7819 60.9763 21.3431 60.789 20.8454L58.6807 21.1291C58.9536 22.424 60.2218 23.4194 62.4371 23.4194ZM62.4853 18.3358C61.3669 18.3358 60.7569 17.4475 60.7569 16.0295C60.7569 14.6328 61.3563 13.6537 62.4853 13.6537C63.593 13.6537 64.2137 14.59 64.2137 16.0295C64.2137 17.4796 63.5823 18.3358 62.4853 18.3358Z" fill="#3C2979"/>
<path d="M71.5317 20.3264C74.0254 20.3264 75.5772 18.6194 75.5772 16.0884C75.5772 13.5412 74.0254 11.8396 71.5317 11.8396C69.0382 11.8396 67.4863 13.5412 67.4863 16.0884C67.4863 18.6194 69.0382 20.3264 71.5317 20.3264ZM71.5425 18.5605C70.392 18.5605 69.8034 17.5064 69.8034 16.0723C69.8034 14.6382 70.392 13.5787 71.5425 13.5787C72.6715 13.5787 73.2601 14.6382 73.2601 16.0723C73.2601 17.5064 72.6715 18.5605 71.5425 18.5605Z" fill="#3C2979"/>
<path d="M76.6071 20.1659H78.8867V11.9467H76.6071V20.1659ZM77.7523 10.8871C78.4319 10.8871 78.9884 10.3681 78.9884 9.73131C78.9884 9.09989 78.4319 8.58081 77.7523 8.58081C77.0781 8.58081 76.5215 9.09989 76.5215 9.73131C76.5215 10.3681 77.0781 10.8871 77.7523 10.8871Z" fill="#3C2979"/>
<path d="M80.2612 23.2481H82.5404V18.8495H82.6099C82.9257 19.5344 83.6157 20.2997 84.9428 20.2997C86.8162 20.2997 88.2768 18.8174 88.2768 16.0669C88.2768 13.2416 86.7515 11.8396 84.9483 11.8396C83.5731 11.8396 82.9154 12.6583 82.6099 13.3272H82.5081V11.9467H80.2612V23.2481ZM82.4923 16.0563C82.4923 14.59 83.1128 13.6537 84.2204 13.6537C85.3502 13.6537 85.9494 14.6328 85.9494 16.0563C85.9494 17.4903 85.3391 18.4856 84.2204 18.4856C83.1239 18.4856 82.4923 17.5225 82.4923 16.0563Z" fill="#3C2979"/>
<path d="M96.1833 14.2904C95.9796 12.7761 94.7599 11.8396 92.6836 11.8396C90.5804 11.8396 89.1949 12.8135 89.1996 14.3974C89.1949 15.6282 89.9702 16.4255 91.576 16.7466L92.9994 17.0302C93.7162 17.1746 94.0431 17.4368 94.0533 17.8488C94.0431 18.3358 93.5133 18.6836 92.716 18.6836C91.902 18.6836 91.362 18.3358 91.2231 17.6669L88.981 17.7847C89.1949 19.3578 90.5323 20.3264 92.7104 20.3264C94.8396 20.3264 96.3649 19.2401 96.3704 17.6188C96.3649 16.4309 95.5889 15.7192 93.9949 15.3927L92.5067 15.093C91.7417 14.9272 91.4583 14.665 91.4638 14.269C91.4583 13.7767 92.0149 13.4557 92.7207 13.4557C93.5133 13.4557 93.9839 13.8891 94.096 14.4188L96.1833 14.2904Z" fill="#3C2979"/>
<path d="M102.625 16.6662C102.63 17.7685 101.875 18.3464 101.057 18.3464C100.195 18.3464 99.6387 17.7417 99.6332 16.7731V11.9465H97.354V17.1799C97.3587 19.1009 98.4829 20.2728 100.136 20.2728C101.372 20.2728 102.261 19.636 102.63 18.6728H102.715V20.1657H104.904V11.9465H102.625V16.6662Z" fill="#3C2979"/>
<path d="M106.275 20.1659H108.555V15.2322C108.555 14.3225 109.133 13.7178 109.892 13.7178C110.641 13.7178 111.144 14.2315 111.144 15.0396V20.1659H113.355V15.1465C113.355 14.2957 113.842 13.7178 114.671 13.7178C115.399 13.7178 115.944 14.1727 115.944 15.0877V20.1659H118.219V14.6382C118.219 12.8563 117.159 11.8396 115.629 11.8396C114.425 11.8396 113.488 12.455 113.151 13.3968H113.066C112.804 12.4443 111.963 11.8396 110.834 11.8396C109.726 11.8396 108.886 12.4282 108.544 13.3968H108.448V11.9467H106.275V20.1659Z" fill="#3C2979"/>
<path d="M13.5183 2.18408H20.6226L17.7709 10.1533C12.7518 11.0353 8.91287 15.8913 8.91287 21.7496C8.91287 24.3924 9.69413 26.8312 11.0125 28.7932H1.5791L10.203 4.69309C10.7452 3.17774 12.0582 2.18408 13.5183 2.18408Z" fill="#341492"/>
<path d="M20.6222 2.18408L18.618 7.78481L18.0142 2.18408H20.6222Z" fill="black" fill-opacity="0.3"/>
<path d="M25.1185 2.18408H18.0142L20.8538 10.1196C25.9728 10.904 29.9163 15.812 29.9163 21.7496C29.9163 24.3924 29.1351 26.8312 27.8167 28.7932H37.0576L28.4337 4.6931C27.8915 3.17774 26.5785 2.18408 25.1185 2.18408Z" fill="#4C28B5"/>
<path d="M12.251 28.0264C11.0369 26.2975 10.313 24.1181 10.313 21.7497C10.313 16.1307 14.3879 11.5757 19.4146 11.5757C24.4413 11.5757 28.5163 16.1307 28.5163 21.7497C28.5163 24.1181 27.7923 26.2975 26.5783 28.0264C24.5852 26.5427 22.1041 25.6628 19.4146 25.6628C16.7252 25.6628 14.244 26.5427 12.251 28.0264Z" fill="#4C28B5"/>
</svg>
