<svg width="120" height="62" viewBox="0 0 120 62" fill="none" xmlns="http://www.w3.org/2000/svg">
<path d="M3.10205 35.8198H6.50155V52.4887H3.10205V35.8198Z" fill="#394149"/>
<path d="M8.47342 46.7773C8.47117 45.5801 8.82415 44.409 9.48769 43.4124C10.1512 42.4158 11.0955 41.6384 12.201 41.1787C13.3065 40.719 14.5235 40.5975 15.6981 40.8297C16.8726 41.0619 17.9519 41.6373 18.7992 42.4832C19.6467 43.329 20.2241 44.4072 20.4585 45.5813C20.6929 46.7553 20.5738 47.9726 20.1161 49.079C19.6584 50.1853 18.8829 51.131 17.8875 51.7964C16.8922 52.4619 15.7218 52.817 14.5246 52.817C13.7283 52.8261 12.9383 52.6763 12.2008 52.376C11.4633 52.0759 10.7931 51.6315 10.2295 51.069C9.66595 50.5065 9.22033 49.8372 8.91878 49.1001C8.61724 48.3632 8.46582 47.5735 8.47342 46.7773ZM17.1534 46.7773C17.1401 46.2605 16.9746 45.759 16.6777 45.3357C16.3809 44.9124 15.9658 44.5861 15.4843 44.3975C15.0029 44.2088 14.4766 44.1665 13.9713 44.2754C13.4658 44.3844 13.0038 44.64 12.6429 45.0102C12.282 45.3804 12.0383 45.8489 11.9422 46.3569C11.8462 46.8649 11.9021 47.39 12.1029 47.8664C12.3037 48.3428 12.6406 48.7495 13.0713 49.0355C13.5021 49.3214 14.0075 49.4741 14.5246 49.4742C14.8782 49.4841 15.2302 49.4207 15.5581 49.2877C15.8861 49.1547 16.183 48.9553 16.4301 48.7019C16.677 48.4484 16.8689 48.1466 16.9933 47.8154C17.1179 47.4841 17.1724 47.1307 17.1534 46.7773Z" fill="#394149"/>
<path d="M34.2413 41.0662V51.9218C34.2413 55.7633 31.2384 57.3838 28.2016 57.3838C27.1337 57.4632 26.0645 57.2472 25.1111 56.7595C24.1577 56.2718 23.3569 55.5312 22.7964 54.6188L25.72 52.9304C25.9519 53.398 26.319 53.7852 26.7736 54.0418C27.2281 54.2983 27.7493 54.4126 28.2696 54.3695C28.6119 54.4266 28.9627 54.4043 29.2951 54.3042C29.6275 54.2042 29.9325 54.0293 30.1865 53.7928C30.4404 53.5562 30.6367 53.2645 30.7602 52.9402C30.8837 52.6158 30.931 52.2674 30.8985 51.9218V50.868C30.4989 51.3598 29.9889 51.7504 29.4101 52.0082C28.8313 52.2661 28.1999 52.3841 27.567 52.3525C26.0283 52.3525 24.5526 51.7412 23.4645 50.6532C22.3764 49.5652 21.7651 48.0894 21.7651 46.5506C21.7651 45.0119 22.3764 43.5362 23.4645 42.4482C24.5526 41.3602 26.0283 40.7489 27.567 40.7489C28.1995 40.72 28.83 40.8391 29.4084 41.0968C29.9868 41.3545 30.4971 41.7437 30.8985 42.2333V41.1001L34.2413 41.0662ZM30.8985 46.5506C30.9211 45.9996 30.7783 45.4543 30.4887 44.9849C30.1989 44.5156 29.7754 44.1436 29.2726 43.9169C28.7698 43.6901 28.2106 43.6189 27.667 43.7125C27.1234 43.806 26.6202 44.06 26.2222 44.4418C25.824 44.8236 25.5492 45.3157 25.4331 45.8549C25.3168 46.394 25.3645 46.9558 25.5701 47.4676C25.7757 47.9795 26.1295 48.4181 26.5864 48.7272C27.0432 49.0364 27.582 49.2018 28.1335 49.2023C28.4937 49.2277 28.855 49.1776 29.1943 49.0548C29.5338 48.932 29.8438 48.7397 30.1043 48.4898C30.3647 48.24 30.57 47.9383 30.7068 47.6044C30.8436 47.2704 30.9089 46.9115 30.8985 46.5506Z" fill="#394149"/>
<path d="M36.2019 46.7773C36.1997 45.5801 36.5527 44.409 37.2162 43.4124C37.8798 42.4158 38.8241 41.6384 39.9295 41.1787C41.0349 40.719 42.252 40.5975 43.4265 40.8297C44.6011 41.0619 45.6804 41.6373 46.5278 42.4832C47.3751 43.329 47.9526 44.4072 48.1871 45.5813C48.4214 46.7553 48.3023 47.9726 47.8446 49.079C47.3869 50.1853 46.6113 51.131 45.6161 51.7964C44.6207 52.4619 43.4503 52.817 42.2531 52.817C41.4569 52.8261 40.6668 52.6763 39.9293 52.376C39.1917 52.0759 38.5215 51.6315 37.958 51.069C37.3945 50.5065 36.9488 49.8372 36.6473 49.1001C36.3457 48.3632 36.1943 47.5735 36.2019 46.7773ZM44.882 46.7773C44.8686 46.2605 44.7031 45.759 44.4062 45.3357C44.1093 44.9124 43.6943 44.5861 43.2128 44.3975C42.7315 44.2088 42.2052 44.1665 41.6997 44.2754C41.1943 44.3844 40.7323 44.64 40.3713 45.0102C40.0105 45.3804 39.7668 45.8489 39.6707 46.3569C39.5747 46.8649 39.6306 47.39 39.8313 47.8664C40.0322 48.3428 40.3691 48.7495 40.7997 49.0355C41.2305 49.3214 41.736 49.4741 42.2531 49.4742C42.6049 49.4809 42.9543 49.4151 43.2797 49.2807C43.6049 49.1463 43.899 48.9464 44.1435 48.6933C44.3881 48.4404 44.5778 48.1395 44.7011 47.8099C44.8242 47.4803 44.8781 47.1287 44.8593 46.7773H44.882Z" fill="#394149"/>
<path d="M49.8794 38.0067C49.8794 37.5988 50.0004 37.2 50.2269 36.8609C50.4536 36.5218 50.7757 36.2574 51.1525 36.1013C51.5294 35.9452 51.944 35.9044 52.3441 35.984C52.7442 36.0635 53.1116 36.26 53.4001 36.5483C53.6886 36.8368 53.8849 37.2042 53.9644 37.6043C54.0441 38.0044 54.0032 38.4191 53.8472 38.7959C53.6911 39.1727 53.4267 39.4949 53.0876 39.7215C52.7484 39.948 52.3497 40.069 51.9417 40.069C51.3957 40.0661 50.8729 39.8478 50.4867 39.4617C50.1006 39.0756 49.8824 38.5528 49.8794 38.0067ZM50.2306 41.0662H53.6301V52.4885H50.2306V41.0662Z" fill="#394149"/>
<path d="M68.4516 46.7773C68.4928 47.5323 68.3843 48.2881 68.1323 49.001C67.8802 49.7139 67.4897 50.37 66.9831 50.9313C66.4764 51.4927 65.8638 51.9483 65.1804 52.272C64.497 52.5956 63.7564 52.7809 63.0011 52.8171C62.367 52.8475 61.7339 52.7386 61.1466 52.4977C60.5592 52.2569 60.0318 51.8901 59.6016 51.4233V57.0891H56.2021V41.0661H59.6016V42.1427C60.0318 41.6759 60.5592 41.3091 61.1466 41.0683C61.7339 40.8275 62.367 40.7185 63.0011 40.7489C63.7554 40.7851 64.4951 40.97 65.1777 41.2929C65.8603 41.616 66.4725 42.0706 66.9789 42.6307C67.4854 43.1909 67.8761 43.8455 68.1288 44.5571C68.3817 45.2687 68.4913 46.0232 68.4516 46.7773ZM65.0521 46.7773C65.0387 46.2455 64.8695 45.7292 64.5655 45.2925C64.2616 44.856 63.8363 44.518 63.3423 44.3207C62.8482 44.1233 62.307 44.0752 61.786 44.1823C61.2648 44.2894 60.7865 44.547 60.4103 44.9232C60.0341 45.2994 59.7766 45.7776 59.6694 46.2987C59.5624 46.8199 59.6105 47.361 59.8078 47.855C60.0052 48.3491 60.3431 48.7745 60.7798 49.0783C61.2165 49.3823 61.7327 49.5515 62.2645 49.5649C62.6357 49.5886 63.0076 49.5324 63.3553 49.4004C63.703 49.2683 64.0183 49.0633 64.2803 48.7993C64.5421 48.5352 64.7446 48.2181 64.8738 47.8694C65.0029 47.5207 65.0561 47.1483 65.0295 46.7773H65.0521Z" fill="#394149"/>
<path d="M79.0355 49.0663C79.0355 51.6952 76.7692 52.817 74.2762 52.817C73.2803 52.9052 72.2808 52.6933 71.4064 52.2086C70.5321 51.7239 69.8226 50.9887 69.3696 50.0974L72.3385 48.409C72.459 48.8212 72.717 49.1798 73.0695 49.4251C73.422 49.6704 73.8478 49.7877 74.2762 49.7575C75.1035 49.7575 75.5113 49.4968 75.5113 49.0436C75.5113 47.7858 69.8455 48.4544 69.8455 44.511C69.8455 42.018 71.9532 40.7601 74.3782 40.7601C75.273 40.733 76.1589 40.9455 76.9439 41.376C77.729 41.8063 78.3845 42.4388 78.8429 43.2078L75.8627 44.7716C75.7311 44.4723 75.5153 44.2177 75.2417 44.0386C74.9681 43.8596 74.6485 43.7638 74.3215 43.763C73.7323 43.763 73.3697 43.9897 73.3697 44.409C73.4151 45.712 79.0355 44.8395 79.0355 49.0663Z" fill="#394149"/>
<path d="M91.546 41.0662V52.4885H88.1464V51.4234C87.751 51.8966 87.2491 52.2696 86.6819 52.5119C86.1148 52.7542 85.4982 52.8587 84.8828 52.8172C82.6165 52.8172 80.6108 51.174 80.6108 48.0805V41.0662H84.0103V47.5819C83.9804 47.8596 84.0128 48.1404 84.105 48.404C84.1972 48.6677 84.3468 48.9074 84.5432 49.106C84.7396 49.3046 84.9778 49.4569 85.2403 49.552C85.5029 49.6471 85.7834 49.6824 86.0614 49.6556C87.3079 49.6556 88.1804 48.9304 88.1804 47.31V41.0662H91.546Z" fill="#394149"/>
<path d="M111.195 45.4855V52.4884H107.795V45.7802C107.795 44.647 107.24 43.8991 106.152 43.8991C105.064 43.8991 104.362 44.7037 104.362 46.0521V52.4884H100.962V45.7802C100.962 44.647 100.418 43.8991 99.3191 43.8991C98.22 43.8991 97.5401 44.7037 97.5401 46.0521V52.4884H94.1406V41.0662H97.5401V42.1201C97.8954 41.6546 98.3614 41.2854 98.8957 41.046C99.4301 40.8064 100.016 40.7043 100.6 40.749C101.186 40.7204 101.77 40.8444 102.294 41.1084C102.818 41.3725 103.265 41.7679 103.591 42.256C103.97 41.7457 104.473 41.3397 105.052 41.0762C105.63 40.8127 106.266 40.7 106.9 40.749C109.484 40.749 111.195 42.63 111.195 45.4855Z" fill="#394149"/>
<path d="M114.096 40.9982C115.498 40.9982 116.634 39.8617 116.634 38.4599C116.634 37.058 115.498 35.9216 114.096 35.9216C112.694 35.9216 111.558 37.058 111.558 38.4599C111.558 39.8617 112.694 40.9982 114.096 40.9982Z" fill="#394149"/>
<path d="M41.573 27.1737C48.138 27.1737 53.4598 21.8517 53.4598 15.2868C53.4598 8.72185 48.138 3.3999 41.573 3.3999C35.008 3.3999 29.686 8.72185 29.686 15.2868C29.686 21.8517 35.008 27.1737 41.573 27.1737Z" fill="#394149"/>
<path d="M68.1457 27.1737C74.7107 27.1737 80.0326 21.8517 80.0326 15.2868C80.0326 8.72185 74.7107 3.3999 68.1457 3.3999C61.5808 3.3999 56.2588 8.72185 56.2588 15.2868C56.2588 21.8517 61.5808 27.1737 68.1457 27.1737Z" fill="#394149"/>
<path d="M26.8874 3.3999H3.125V27.1623H26.8874V3.3999Z" fill="#394149"/>
</svg>
