<svg width="120" height="86" viewBox="0 0 120 86" fill="none" xmlns="http://www.w3.org/2000/svg">
<path d="M9.77478 77.703V60.3076H6.92285V77.703H9.77478Z" fill="#152C4F"/>
<path d="M11.5205 71.9045C11.5205 75.4583 13.9049 77.9834 17.5282 77.9834C21.1516 77.9834 23.536 75.4583 23.536 71.9045C23.536 68.3505 21.1516 65.8254 17.5282 65.8254C13.9049 65.8254 11.5205 68.3505 11.5205 71.9045ZM14.3958 71.9045C14.3958 69.8235 15.6348 68.3739 17.5282 68.3739C19.4217 68.3739 20.6607 69.8235 20.6607 71.9045C20.6607 73.9619 19.4217 75.4349 17.5282 75.4349C15.6348 75.4349 14.3958 73.9619 14.3958 71.9045Z" fill="#152C4F"/>
<path d="M24.4951 71.6708C24.4951 75.0377 26.6691 77.4693 29.9184 77.4693C31.6015 77.4693 33.0509 76.7912 33.7755 75.669V77.633C33.7755 79.5268 32.5833 80.7894 30.5963 80.7894C28.8197 80.7894 27.6042 79.9243 27.4405 78.4045H24.5653C24.9392 81.4207 27.2535 83.3847 30.4327 83.3847C34.173 83.3847 36.5573 80.9296 36.5573 77.1186V66.153H34.0327L33.8691 67.7195C33.1678 66.5037 31.7184 65.7788 30.0119 65.7788C26.7158 65.7788 24.4951 68.2806 24.4951 71.6708ZM27.3938 71.6007C27.3938 69.6834 28.6094 68.2806 30.4094 68.2806C32.373 68.2806 33.682 69.7068 33.682 71.6007C33.682 73.5179 32.373 74.9909 30.4094 74.9909C28.6327 74.9909 27.3938 73.5413 27.3938 71.6007Z" fill="#152C4F"/>
<path d="M37.9688 71.9045C37.9688 75.4583 40.3532 77.9834 43.9765 77.9834C47.5998 77.9834 49.9842 75.4583 49.9842 71.9045C49.9842 68.3505 47.5998 65.8254 43.9765 65.8254C40.3532 65.8254 37.9688 68.3505 37.9688 71.9045ZM40.844 71.9045C40.844 69.8235 42.083 68.3739 43.9765 68.3739C45.8699 68.3739 47.1089 69.8235 47.1089 71.9045C47.1089 73.9619 45.8699 75.4349 43.9765 75.4349C42.083 75.4349 40.844 73.9619 40.844 71.9045Z" fill="#152C4F"/>
<path d="M53.0708 63.7914C54.0059 63.7914 54.7773 63.0431 54.7773 62.0845C54.7773 61.1493 54.0059 60.4011 53.0708 60.4011C52.1124 60.4011 51.3877 61.1493 51.3877 62.0845C51.3877 63.0431 52.1124 63.7914 53.0708 63.7914ZM51.6449 77.7029H54.4968V66.1528H51.6449V77.7029Z" fill="#152C4F"/>
<path d="M56.9951 83.0573H59.7768V76.1132C60.5015 77.3056 62.0678 78.0071 63.7976 78.0071C67.2106 78.0071 69.2443 75.3884 69.1975 71.7877C69.1275 68.1637 67.047 65.8022 63.7742 65.8022C62.021 65.8022 60.4314 66.5738 59.7301 67.9065L59.5665 66.153H56.9951V83.0573ZM59.8937 71.928C59.8937 69.8472 61.1561 68.3975 63.143 68.3975C65.1301 68.3975 66.3222 69.8705 66.3222 71.928C66.3222 73.9856 65.1301 75.4351 63.143 75.4351C61.1561 75.4351 59.8937 74.009 59.8937 71.928Z" fill="#152C4F"/>
<path d="M69.9219 74.2427C70.0155 76.5341 71.792 78.0071 74.5504 78.0071C77.2621 78.0071 79.1088 76.5575 79.1088 74.3129C79.1088 72.6529 78.0803 71.5305 76.1868 71.063L74.153 70.5719C73.2881 70.3381 72.7037 70.0342 72.7037 69.2861C72.7037 68.4911 73.3348 67.9299 74.3634 67.9299C75.4388 67.9299 76.1401 68.5378 76.1401 69.5432H78.7348C78.6413 67.2518 76.9348 65.8022 74.4335 65.8022C71.9556 65.8022 70.1089 67.2518 70.1089 69.4497C70.1089 70.9461 70.9738 72.1852 73.1946 72.7697L75.205 73.2841C75.953 73.4946 76.4206 73.8452 76.4206 74.4999C76.4206 75.4118 75.5556 75.8326 74.5037 75.8326C73.2414 75.8326 72.5166 75.2481 72.5166 74.2427H69.9219Z" fill="#152C4F"/>
<path d="M85.0241 78.0069C86.5904 78.0069 88.0864 77.282 88.7643 76.2065L88.9514 77.7029H91.6163V66.1528H88.7643V72.2084C88.7643 74.2893 87.9695 75.4584 86.0995 75.4584C84.6502 75.4584 83.6449 74.7569 83.6449 72.3721V66.1528H80.793V73.3775C80.793 76.1364 82.289 78.0069 85.0241 78.0069Z" fill="#152C4F"/>
<path d="M96.9856 77.7031V71.063C96.9856 69.1925 98.0843 68.304 99.4402 68.304C100.796 68.304 101.684 69.1691 101.684 70.8058V77.7031H104.466V71.0863C104.466 69.1925 105.541 68.304 106.897 68.304C108.276 68.304 109.165 69.1691 109.165 70.8058V77.7031H111.923V70.1511C111.923 67.4857 110.45 65.8022 107.645 65.8022C105.892 65.8022 104.513 66.644 103.952 68.0001C103.321 66.644 102.058 65.8022 100.142 65.8022C98.7856 65.8022 97.5701 66.4335 96.8922 67.4623L96.7519 66.153H94.1338V77.7031H96.9856Z" fill="#152C4F"/>
<path d="M52.4849 44.5604C48.7278 51.3217 41.0779 54.5385 33.3427 54.5385H2.30762C34.6153 50.5 57.1153 34.3462 59.9999 11.8462C62.8845 34.3462 85.3846 50.5 117.692 54.5385H86.6571C78.922 54.5385 71.2721 51.3217 67.5149 44.5604C63.4483 37.2423 60.8575 28.9617 59.9999 19.9231C59.1424 28.9617 56.5515 37.2423 52.4849 44.5604Z" fill="#1A4688"/>
<path d="M34.7367 42.1706C32.9244 43.1909 31.018 44.1493 29.0218 45.042C27.8879 41.1252 27.4707 37.0158 27.8035 32.9222C28.2437 27.5066 29.9829 22.2855 32.867 17.7217C35.7513 13.1579 39.6913 9.39199 44.3383 6.75763C48.9853 4.12329 54.1959 2.70178 59.5083 2.61906C64.8207 2.53633 70.0711 3.79494 74.7943 6.28338C79.5176 8.77181 83.568 12.4132 86.5865 16.8852C89.6052 21.3572 91.499 26.5215 92.1003 31.9209C92.5919 36.3372 92.2066 40.7994 90.9783 45.042C88.9821 44.1493 87.0758 43.1908 85.2634 42.1705C86.0275 39.0687 86.2416 35.8419 85.8857 32.6448C85.4008 28.2907 83.8736 24.1262 81.4395 20.52C79.0052 16.9139 75.739 13.9774 71.9301 11.9707C68.1213 9.96405 63.8874 8.94912 59.6035 9.01583C55.3195 9.08253 51.1178 10.2288 47.3705 12.3531C43.6232 14.4775 40.4458 17.5143 38.12 21.1946C35.7942 24.8749 34.3917 29.085 34.0368 33.4522C33.7982 36.3876 34.0377 39.3332 34.7367 42.1706Z" fill="#7FB5E6"/>
</svg>
