<svg width="120" height="62" viewBox="0 0 120 62" fill="none" xmlns="http://www.w3.org/2000/svg">
<path d="M30.4067 30.4763L30.6524 30.4243H51.0873L58.766 38.103H38.0337L30.4067 30.4763Z" fill="black"/>
<path d="M23.8281 30.4241L3.0957 30.4242L10.7743 38.1028H23.8279L23.8281 30.4241Z" fill="black"/>
<path d="M65.9014 8.3667H69.0858V18.2617H74.5552V20.9424H65.9014V8.3667Z" fill="black"/>
<path d="M80.3369 21.2122C79.2694 21.2122 78.3342 21.0204 77.53 20.6365C76.7265 20.2407 76.1029 19.7011 75.659 19.0173C75.2271 18.3217 75.0112 17.5241 75.0112 16.6245C75.0112 15.725 75.2271 14.9334 75.659 14.2498C76.1029 13.5541 76.7265 13.0144 77.53 12.6306C78.3342 12.2347 79.2694 12.0369 80.3369 12.0369C81.4044 12.0369 82.3403 12.2347 83.1438 12.6306C83.9472 13.0144 84.5648 13.5541 84.9966 14.2498C85.4405 14.9334 85.6624 15.725 85.6624 16.6245C85.6624 17.5241 85.4405 18.3217 84.9966 19.0173C84.5648 19.7011 83.9472 20.2407 83.1438 20.6365C82.3403 21.0204 81.4044 21.2122 80.3369 21.2122ZM80.3369 18.7475C80.9725 18.7475 81.4766 18.5616 81.8483 18.1898C82.2319 17.806 82.4238 17.2843 82.4238 16.6245C82.4238 15.9649 82.2319 15.4491 81.8483 15.0773C81.4766 14.6935 80.9725 14.5016 80.3369 14.5016C79.7011 14.5016 79.1919 14.6935 78.8074 15.0773C78.4358 15.4491 78.25 15.9649 78.25 16.6245C78.25 17.2843 78.4358 17.806 78.8074 18.1898C79.1919 18.5616 79.7011 18.7475 80.3369 18.7475Z" fill="black"/>
<path d="M91.6097 25.0803C91.0342 25.0803 90.4526 25.0264 89.8642 24.9184C89.2887 24.8105 88.7915 24.6665 88.3718 24.4866V22.2917C89.3189 22.6995 90.3984 22.9035 91.6097 22.9035C92.4853 22.9035 93.115 22.7235 93.4986 22.3636C93.8944 22.0039 94.0922 21.4762 94.0922 20.7805V20.2587C93.7447 20.5585 93.3129 20.7925 92.7975 20.9604C92.2935 21.1284 91.7533 21.2122 91.1778 21.2122C90.2668 21.2122 89.4625 21.0204 88.7675 20.6365C88.0715 20.2528 87.5262 19.713 87.1296 19.0173C86.746 18.3217 86.5542 17.5241 86.5542 16.6245C86.5542 15.713 86.746 14.9094 87.1296 14.2138C87.5142 13.5181 88.0535 12.9844 88.7495 12.6126C89.4445 12.2288 90.2428 12.0369 91.1417 12.0369C92.3778 12.0369 93.3972 12.4147 94.2006 13.1702V12.3067H97.2587V20.3487C97.2587 21.848 96.7976 23.0114 95.8737 23.839C94.9619 24.6665 93.5408 25.0803 91.6097 25.0803ZM91.9692 18.7655C92.4613 18.7655 92.8991 18.6395 93.2827 18.3877C93.6664 18.1358 93.9366 17.8 94.0922 17.3801V15.869C93.9244 15.4491 93.6483 15.1193 93.2647 14.8794C92.881 14.6276 92.4492 14.5016 91.9692 14.5016C91.3223 14.5016 90.8002 14.6935 90.4045 15.0773C90.0087 15.4491 89.8109 15.9589 89.8109 16.6066C89.8109 17.2662 90.0087 17.794 90.4045 18.1898C90.8002 18.5736 91.3223 18.7655 91.9692 18.7655Z" fill="black"/>
<path d="M103.388 21.2122C102.32 21.2122 101.384 21.0204 100.581 20.6365C99.7773 20.2407 99.1536 19.7011 98.7098 19.0173C98.2779 18.3217 98.062 17.5241 98.062 16.6245C98.062 15.725 98.2779 14.9334 98.7098 14.2498C99.1536 13.5541 99.7773 13.0144 100.581 12.6306C101.384 12.2347 102.32 12.0369 103.388 12.0369C104.455 12.0369 105.39 12.2347 106.194 12.6306C106.998 13.0144 107.616 13.5541 108.047 14.2498C108.491 14.9334 108.713 15.725 108.713 16.6245C108.713 17.5241 108.491 18.3217 108.047 19.0173C107.616 19.7011 106.998 20.2407 106.194 20.6365C105.39 21.0204 104.455 21.2122 103.388 21.2122ZM103.388 18.7475C104.023 18.7475 104.527 18.5616 104.899 18.1898C105.283 17.806 105.474 17.2843 105.474 16.6245C105.474 15.9649 105.283 15.4491 104.899 15.0773C104.527 14.6935 104.023 14.5016 103.388 14.5016C102.752 14.5016 102.242 14.6935 101.858 15.0773C101.486 15.4491 101.301 15.9649 101.301 16.6245C101.301 17.2843 101.486 17.806 101.858 18.1898C102.242 18.5616 102.752 18.7475 103.388 18.7475Z" fill="black"/>
<path d="M65.9014 25.571H69.0858V38.1468H65.9014V25.571Z" fill="black"/>
<path d="M70.6978 29.511H73.7559V30.3745C74.5594 29.619 75.5796 29.2412 76.8149 29.2412C77.7138 29.2412 78.5121 29.4331 79.2071 29.817C79.903 30.1887 80.4424 30.7224 80.8269 31.418C81.2106 32.1017 81.4024 32.8994 81.4024 33.8109C81.4024 34.7104 81.2106 35.514 80.8269 36.2216C80.4424 36.9173 79.903 37.4571 79.2071 37.8408C78.5241 38.2246 77.7258 38.4165 76.8149 38.4165C76.2385 38.4165 75.6872 38.3266 75.1598 38.1467C74.6437 37.9788 74.2119 37.7449 73.8644 37.445V42.0868H70.6978V29.511ZM75.9874 35.9518C76.635 35.9518 77.1564 35.7599 77.5521 35.3761C77.9477 34.9923 78.1457 34.4705 78.1457 33.8109C78.1457 33.1512 77.9477 32.6355 77.5521 32.2636C77.1564 31.8798 76.635 31.688 75.9874 31.688C75.5074 31.688 75.0755 31.8139 74.6919 32.0658C74.3081 32.3055 74.032 32.6355 73.8644 33.0552V34.5844C74.032 35.0043 74.3081 35.3401 74.6919 35.5919C75.0755 35.8319 75.5074 35.9518 75.9874 35.9518Z" fill="black"/>
<path d="M86.1234 38.4165C85.4274 38.4165 84.7015 38.3445 83.9462 38.2006C83.1909 38.0688 82.5904 37.8769 82.1474 37.625V35.3042C82.6386 35.5919 83.2262 35.8319 83.9101 36.0238C84.606 36.2037 85.2416 36.2936 85.8171 36.2936C86.237 36.2936 86.5432 36.2636 86.735 36.2037C86.9268 36.1437 87.0223 36.0238 87.0223 35.8438C87.0223 35.6999 86.957 35.586 86.8245 35.5021C86.7048 35.4061 86.477 35.3101 86.1415 35.2141C85.8171 35.1062 85.4395 34.9923 85.0076 34.8723C84.2756 34.6564 83.7001 34.4345 83.2804 34.2066C82.8605 33.9787 82.5491 33.691 82.3453 33.3431C82.1414 32.9954 82.0391 32.5574 82.0391 32.0297C82.0391 31.0943 82.4046 30.3985 83.1366 29.9429C83.8799 29.475 84.8941 29.2412 86.1767 29.2412C86.8003 29.2412 87.4542 29.3071 88.138 29.439C88.8339 29.571 89.3552 29.745 89.7036 29.9608V32.2457C89.3431 32.0058 88.864 31.8079 88.2645 31.652C87.6761 31.4961 87.1246 31.418 86.6085 31.418C86.2008 31.418 85.8834 31.46 85.6554 31.544C85.4274 31.616 85.314 31.748 85.314 31.9399C85.314 32.1197 85.4274 32.2577 85.6554 32.3535C85.8834 32.4495 86.2911 32.5695 86.8787 32.7134C87.2623 32.8093 87.4248 32.8514 87.3646 32.8394C88.132 33.0432 88.7255 33.2711 89.1453 33.523C89.565 33.775 89.8592 34.0747 90.027 34.4226C90.2069 34.7584 90.2972 35.1901 90.2972 35.7179C90.2972 36.5455 89.9375 37.2053 89.2175 37.6969C88.5095 38.1766 87.4782 38.4165 86.1234 38.4165Z" fill="black"/>
<path d="M95.0245 38.4167C93.8374 38.4167 92.9437 38.0869 92.3441 37.4273C91.7566 36.7675 91.4624 35.8981 91.4624 34.8186V29.5112H94.6289V34.4587C94.6289 35.4542 95.0787 35.952 95.9777 35.952C96.3862 35.952 96.7579 35.856 97.0934 35.6641C97.4297 35.4723 97.705 35.1903 97.9209 34.8186V29.5112H101.087V38.1469H98.0293V37.2113C97.6576 37.6071 97.2078 37.907 96.6796 38.1109C96.1523 38.3148 95.6001 38.4167 95.0245 38.4167Z" fill="black"/>
<path d="M102.709 29.511H105.641V30.4465C106.001 30.0628 106.415 29.769 106.883 29.565C107.351 29.3491 107.849 29.2412 108.376 29.2412C109.024 29.2412 109.54 29.3371 109.924 29.529C110.319 29.721 110.637 30.0087 110.877 30.3926C111.236 30.0327 111.674 29.7509 112.19 29.547C112.705 29.3431 113.228 29.2412 113.755 29.2412C114.895 29.2412 115.704 29.535 116.184 30.1227C116.664 30.6984 116.904 31.532 116.904 32.6235V38.1467H113.881V33.0733C113.881 32.5935 113.791 32.2457 113.611 32.0297C113.432 31.8139 113.131 31.7059 112.712 31.7059C112.172 31.7059 111.734 31.8979 111.399 32.2815C111.411 32.4855 111.417 32.7974 111.417 33.2172V38.1467H108.394V32.9474C108.394 32.5035 108.316 32.1857 108.16 31.9938C108.004 31.8019 107.728 31.7059 107.333 31.7059C106.721 31.7059 106.193 32.0477 105.75 32.7314V38.1467H102.709V29.511Z" fill="black"/>
<path d="M30.6524 30.4242L30.4066 30.4763L38.0332 38.1029V58.8351H31.5063L23.8276 51.1565H30.3545V30.4241H23.8276V23.8975H30.3545V3.16504L38.0332 10.8437V23.8973L30.3545 23.8975V30.4241L30.6524 30.4242Z" fill="#555555"/>
<path d="M51.0874 30.4243L58.766 38.103V31.5761L51.0874 23.8975V30.4243Z" fill="#555555"/>
<path d="M66.3511 44.0498H71.0107C72.3298 44.0498 73.3551 44.3617 74.0872 44.9854C74.8304 45.6091 75.2029 46.5326 75.2029 47.7559C75.2029 48.9913 74.8364 49.915 74.1053 50.5267C73.3732 51.1383 72.3418 51.4442 71.0107 51.4442H67.7543V56.6256H66.3511V44.0498ZM70.9028 50.2568C71.8024 50.2568 72.5104 50.0769 73.0257 49.717C73.5418 49.3453 73.799 48.6916 73.799 47.7559C73.799 46.8084 73.5418 46.1548 73.0257 45.795C72.5104 45.4231 71.8024 45.2373 70.9028 45.2373H67.7543V50.2568H70.9028Z" fill="#555555"/>
<path d="M76.9985 43.3301H78.3835V56.6255H76.9985V43.3301Z" fill="#555555"/>
<path d="M84.3893 56.8956C83.2375 56.8956 82.3498 56.5837 81.726 55.96C81.1144 55.3363 80.8091 54.5028 80.8091 53.4593V47.99H82.194V53.5313C82.194 55.0425 82.9793 55.7982 84.551 55.7982C85.2109 55.7982 85.7862 55.6542 86.2784 55.3664C86.7816 55.0784 87.2314 54.6226 87.6272 53.999V47.99H89.013V56.6257H87.6633V55.3303C86.8839 56.3738 85.7923 56.8956 84.3893 56.8956Z" fill="#555555"/>
<path d="M94.5327 56.8954C93.9684 56.8954 93.3628 56.8114 92.7151 56.6435C92.0673 56.4875 91.5641 56.2897 91.2037 56.0497V54.8804C91.6596 55.1563 92.1818 55.3781 92.7693 55.5459C93.3688 55.714 93.9443 55.7978 94.4965 55.7978C95.2398 55.7978 95.774 55.6959 96.0975 55.492C96.4337 55.2761 96.6015 54.9583 96.6015 54.5386C96.6015 54.2147 96.5292 53.9628 96.3856 53.7829C96.2411 53.5909 96.002 53.4231 95.6656 53.2792C95.3301 53.1352 94.808 52.9673 94.1009 52.7754C93.405 52.5836 92.8476 52.3856 92.4277 52.1817C92.0201 51.9657 91.7077 51.6959 91.4918 51.3721C91.276 51.0483 91.1685 50.6345 91.1685 50.1307C91.1685 49.3511 91.4798 48.7574 92.1035 48.3497C92.7392 47.9298 93.5787 47.72 94.6222 47.72C95.1856 47.72 95.7137 47.7739 96.2059 47.8818C96.7091 47.9778 97.1289 48.1157 97.4652 48.2957V49.465C97.1167 49.2732 96.697 49.1232 96.2059 49.0152C95.7137 48.8954 95.2037 48.8354 94.6764 48.8354C93.9804 48.8354 93.4532 48.9373 93.0927 49.1412C92.7332 49.3452 92.5534 49.675 92.5534 50.1307C92.5534 50.4426 92.6135 50.6825 92.7331 50.8504C92.8656 51.0182 93.0987 51.1742 93.4351 51.3181C93.7826 51.4501 94.3348 51.618 95.0901 51.8219C96.1697 52.1217 96.9189 52.4756 97.3387 52.8834C97.7706 53.2792 97.9864 53.8309 97.9864 54.5386C97.9864 55.2701 97.6992 55.8458 97.1228 56.2657C96.5594 56.6855 95.6957 56.8954 94.5327 56.8954Z" fill="#555555"/>
</svg>
