<svg width="195" height="109" viewBox="0 0 195 109" fill="none" xmlns="http://www.w3.org/2000/svg">
<path opacity="0.8" d="M11.9 93.85L11.1019 94.4526L11.1049 94.4565L11.9 93.85ZM11.9 15.4L12.6951 16.0065L11.9 15.4ZM79.7 15.55L78.902 16.1526L78.9049 16.1565L79.7 15.55ZM79.7 93.85L80.4951 94.4565L80.498 94.4526L79.7 93.85ZM55.55 38.2L54.6248 38.5796L54.6284 38.5881L55.55 38.2ZM35.9 38.2L36.8217 38.5881L36.8252 38.5796L35.9 38.2ZM12.698 93.2474C5.46692 83.6711 1.8 70.805 1.8 54.55H-0.2C-0.2 71.095 3.53308 84.4289 11.102 94.4526L12.698 93.2474ZM1.8 54.55C1.8 38.2943 5.46719 25.4809 12.6951 16.0065L11.1049 14.7935C3.53281 24.7191 -0.2 38.0057 -0.2 54.55H1.8ZM12.6951 16.0065C19.8597 6.61498 30.827 1.85 45.8 1.85V-0.150002C30.373 -0.150002 18.7403 4.78502 11.1049 14.7935L12.6951 16.0065ZM45.8 1.85C60.7693 1.85 71.7359 6.66235 78.902 16.1526L80.498 14.9474C72.8642 4.83765 61.2307 -0.150002 45.8 -0.150002V1.85ZM78.9049 16.1565C86.1336 25.6319 89.8 38.3959 89.8 54.55H91.8C91.8 38.1041 88.0665 24.8681 80.4951 14.9435L78.9049 16.1565ZM89.8 54.55C89.8 70.805 86.1331 83.6711 78.902 93.2474L80.498 94.4526C88.0669 84.4289 91.8 71.095 91.8 54.55H89.8ZM78.9049 93.2435C71.7403 102.635 60.773 107.4 45.8 107.4V109.4C61.227 109.4 72.8597 104.465 80.4951 94.4565L78.9049 93.2435ZM45.8 107.4C30.827 107.4 19.8597 102.635 12.6951 93.2435L11.1049 94.4565C18.7403 104.465 30.373 109.4 45.8 109.4V107.4ZM56.4752 71.4296C58.1472 67.354 58.95 61.7033 58.95 54.55H56.95C56.95 61.5967 56.1528 66.946 54.6248 70.6704L56.4752 71.4296ZM58.95 54.55C58.95 47.3991 58.1479 41.7929 56.4716 37.8119L54.6284 38.5881C56.1522 42.207 56.95 47.5009 56.95 54.55H58.95ZM56.4752 37.8204C55.603 35.6946 54.2575 34.0533 52.427 32.955C50.6073 31.8632 48.3792 31.35 45.8 31.35V33.35C48.1208 33.35 49.9677 33.8118 51.398 34.67C52.8175 35.5217 53.897 36.8054 54.6248 38.5796L56.4752 37.8204ZM45.8 31.35C43.1742 31.35 40.9105 31.8618 39.0663 32.9516C37.2099 34.0485 35.8488 35.6901 34.9748 37.8204L36.8252 38.5796C37.5512 36.8098 38.6401 35.5265 40.0837 34.6734C41.5395 33.8132 43.4258 33.35 45.8 33.35V31.35ZM34.9784 37.8119C33.3022 41.7929 32.5 47.3991 32.5 54.55H34.5C34.5 47.5009 35.2978 42.207 36.8216 38.5881L34.9784 37.8119ZM32.5 54.55C32.5 61.7033 33.3028 67.354 34.9748 71.4296L36.8252 70.6704C35.2972 66.946 34.5 61.5967 34.5 54.55H32.5ZM34.9748 71.4296C35.8488 73.5598 37.2099 75.2015 39.0663 76.2984C40.9105 77.3882 43.1742 77.9 45.8 77.9V75.9C43.4258 75.9 41.5395 75.4368 40.0837 74.5766C38.6401 73.7235 37.5512 72.4402 36.8252 70.6704L34.9748 71.4296ZM45.8 77.9C48.3792 77.9 50.6073 77.3868 52.427 76.295C54.2575 75.1967 55.603 73.5554 56.4752 71.4296L54.6248 70.6704C53.897 72.4446 52.8175 73.7283 51.398 74.58C49.9677 75.4382 48.1208 75.9 45.8 75.9V77.9ZM103.116 92.5H102.116V93.5H103.116V92.5ZM103.116 64.75L102.298 64.1759L102.116 64.4343V64.75H103.116ZM147.816 0.999996V-3.8147e-06H147.296L146.998 0.425888L147.816 0.999996ZM183.666 0.999996H184.666V-3.8147e-06H183.666V0.999996ZM183.666 63.7H182.666V64.7H183.666V63.7ZM194.466 63.7H195.466V62.7H194.466V63.7ZM194.466 92.5V93.5H195.466V92.5H194.466ZM183.666 92.5V91.5H182.666V92.5H183.666ZM183.666 109V110H184.666V109H183.666ZM150.066 109H149.066V110H150.066V109ZM150.066 92.5H151.066V91.5H150.066V92.5ZM152.766 38.95H153.766V35.5963L151.93 38.4023L152.766 38.95ZM136.566 63.7L135.73 63.1523L134.717 64.7H136.566V63.7ZM152.766 63.7V64.7H153.766V63.7H152.766ZM104.116 92.5V64.75H102.116V92.5H104.116ZM103.935 65.3241L148.635 1.5741L146.998 0.425888L102.298 64.1759L103.935 65.3241ZM147.816 2H183.666V-3.8147e-06H147.816V2ZM182.666 0.999996V63.7H184.666V0.999996H182.666ZM183.666 64.7H194.466V62.7H183.666V64.7ZM193.466 63.7V92.5H195.466V63.7H193.466ZM194.466 91.5H183.666V93.5H194.466V91.5ZM182.666 92.5V109H184.666V92.5H182.666ZM183.666 108H150.066V110H183.666V108ZM151.066 109V92.5H149.066V109H151.066ZM150.066 91.5H103.116V93.5H150.066V91.5ZM151.93 38.4023L135.73 63.1523L137.403 64.2477L153.603 39.4977L151.93 38.4023ZM136.566 64.7H152.766V62.7H136.566V64.7ZM153.766 63.7V38.95H151.766V63.7H153.766Z" fill="#44A1E7"/>
</svg>
