<svg width="50" height="50" viewBox="0 0 50 50" fill="none" xmlns="http://www.w3.org/2000/svg">
<circle cx="25" cy="25" r="24.5" stroke="white"/>
<g clip-path="url(#clip0_912_488)">
<path d="M37 25C37 18.3719 31.6281 13 25 13C18.3719 13 13 18.3719 13 25C13 31.6281 18.3719 37 25 37C25.0703 37 25.1406 37 25.2109 36.9953V27.6578H22.6328V24.6531H25.2109V22.4406C25.2109 19.8766 26.7766 18.4797 29.0641 18.4797C30.1609 18.4797 31.1031 18.5594 31.375 18.5969V21.2781H29.8C28.5578 21.2781 28.3141 21.8687 28.3141 22.7359V24.6484H31.2906L30.9016 27.6531H28.3141V36.5359C33.3297 35.0969 37 30.4797 37 25Z" fill="white"/>
</g>
<defs>
<clipPath id="clip0_912_488">
<rect width="24" height="24" fill="white" transform="translate(13 13)"/>
</clipPath>
</defs>
</svg>
