<svg width="50" height="50" viewBox="0 0 50 50" fill="none" xmlns="http://www.w3.org/2000/svg">
<circle cx="25" cy="25" r="24.5" stroke="white"/>
<g clip-path="url(#clip0_912_482)">
<path d="M30.5034 13H19.4966C15.9143 13 13 15.9143 13 19.4966V30.5036C13 34.0857 15.9143 37 19.4966 37H30.5036C34.0857 37 37 34.0857 37 30.5036V19.4966C37 15.9143 34.0857 13 30.5034 13ZM35.593 30.5036C35.593 33.3098 33.3098 35.593 30.5034 35.593H19.4966C16.6901 35.593 14.407 33.3098 14.407 30.5036V19.4966C14.407 16.6901 16.6901 14.407 19.4966 14.407H30.5036C33.3098 14.407 35.593 16.6901 35.593 19.4966V30.5036Z" fill="white"/>
<path d="M24.9998 18.4375C21.3813 18.4375 18.4375 21.3813 18.4375 24.9998C18.4375 28.6183 21.3813 31.5621 24.9998 31.5621C28.6183 31.5621 31.5621 28.6183 31.5621 24.9998C31.5621 21.3813 28.6183 18.4375 24.9998 18.4375ZM24.9998 30.1551C22.1573 30.1551 19.8445 27.8425 19.8445 24.9998C19.8445 22.1573 22.1573 19.8445 24.9998 19.8445C27.8425 19.8445 30.1551 22.1573 30.1551 24.9998C30.1551 27.8425 27.8425 30.1551 24.9998 30.1551Z" fill="white"/>
<path d="M31.7194 16.1074C30.65 16.1074 29.7803 16.9774 29.7803 18.0465C29.7803 19.1158 30.65 19.9858 31.7194 19.9858C32.7887 19.9858 33.6586 19.1158 33.6586 18.0465C33.6586 16.9772 32.7887 16.1074 31.7194 16.1074ZM31.7194 18.5786C31.426 18.5786 31.1873 18.3398 31.1873 18.0465C31.1873 17.753 31.426 17.5144 31.7194 17.5144C32.0129 17.5144 32.2516 17.753 32.2516 18.0465C32.2516 18.3398 32.0129 18.5786 31.7194 18.5786Z" fill="white"/>
</g>
<defs>
<clipPath id="clip0_912_482">
<rect width="24" height="24" fill="white" transform="translate(13 13)"/>
</clipPath>
</defs>
</svg>
