<svg width="25" height="24" viewBox="0 0 25 24" fill="none" xmlns="http://www.w3.org/2000/svg">
<path d="M21.0632 18.771C21.0632 18.771 19.9046 19.909 19.6206 20.2427C19.1581 20.7363 18.6131 20.9693 17.8987 20.9693C17.83 20.9693 17.7567 20.9693 17.688 20.9648C16.3278 20.8779 15.0638 20.3478 14.1158 19.8953C11.5237 18.643 9.24761 16.8652 7.35619 14.612C5.79452 12.7336 4.75035 10.9969 4.05881 9.13217C3.6329 7.99415 3.47719 7.1075 3.54588 6.27113C3.59168 5.7364 3.79777 5.29308 4.17788 4.91374L5.73956 3.35526C5.96397 3.14502 6.20211 3.03076 6.43567 3.03076C6.7242 3.03076 6.95776 3.20443 7.10431 3.35069C7.10889 3.35526 7.11347 3.35983 7.11805 3.3644C7.39741 3.62491 7.66303 3.89456 7.94239 4.18249C8.08437 4.32874 8.23092 4.47499 8.37747 4.62581L9.62772 5.87351C10.1132 6.35797 10.1132 6.80586 9.62772 7.29032C9.49491 7.42286 9.36668 7.5554 9.23387 7.68337C8.84917 8.07642 9.15137 7.77483 8.75294 8.13132C8.74378 8.14046 8.73462 8.14503 8.73004 8.15417C8.33619 8.54722 8.40946 8.93113 8.4919 9.19164C8.49648 9.20535 8.50106 9.21906 8.50564 9.23277C8.8308 10.0189 9.28877 10.7593 9.98488 11.6413L9.98946 11.6459C11.2535 13.1998 12.5861 14.411 14.0562 15.3387C14.244 15.4576 14.4363 15.5536 14.6195 15.645C14.7844 15.7272 14.9401 15.8049 15.0729 15.8872C15.0912 15.8963 15.1096 15.91 15.1279 15.9192C15.2836 15.9969 15.4301 16.0334 15.5813 16.0334C15.9614 16.0334 16.1995 15.7958 16.2774 15.7181L17.1751 14.8222C17.3308 14.6668 17.5781 14.4795 17.8666 14.4795C18.1505 14.4795 18.3841 14.6577 18.5261 14.8131C18.5307 14.8177 18.5307 14.8177 18.5352 14.8222L21.0586 17.3405C21.5304 17.8067 21.0632 18.771 21.0632 18.771Z" stroke="white" stroke-width="2" stroke-linecap="round" stroke-linejoin="round"/>
</svg>
