<svg width="50" height="50" viewBox="0 0 50 50" fill="none" xmlns="http://www.w3.org/2000/svg">
<path d="M34.576 19.0482C33.856 19.3602 33.112 19.5762 32.32 19.6722C33.136 19.1922 33.76 18.4242 34.048 17.4882C33.28 17.9442 32.44 18.2562 31.552 18.4482C30.832 17.6802 29.8 17.2002 28.672 17.2002C26.488 17.2002 24.736 18.9762 24.736 21.1362C24.736 21.4482 24.76 21.7362 24.832 22.0242C21.568 21.8802 18.688 20.2962 16.744 17.9202C15.352 20.4162 16.912 22.4802 17.944 23.1762C17.32 23.1762 16.696 22.9842 16.168 22.6962C16.168 24.6402 17.536 26.2482 19.312 26.6082C18.928 26.7282 18.064 26.8002 17.536 26.6802C18.04 28.2402 19.504 29.3922 21.208 29.4162C19.864 30.4722 17.896 31.3122 15.376 31.0482C17.128 32.1762 19.192 32.8242 21.424 32.8242C28.672 32.8242 32.608 26.8242 32.608 21.6402C32.608 21.4722 32.608 21.3042 32.584 21.1362C33.4 20.5362 34.072 19.8402 34.576 19.0482Z" fill="white"/>
<circle cx="25" cy="25" r="24.5" stroke="white"/>
</svg>
